<svg display="none" 
    xmlns="http://www.w3.org/2000/svg">
    <symbol viewBox="0 0 24 24" id="vector-icon">
    <path d="M24 12C24 14.3734 23.2962 16.6935 21.9776 18.6668C20.6591 20.6402 18.7849 22.1783 16.5922 23.0866C14.3995 23.9948 11.9867 24.2324 9.65892 23.7694C7.33114 23.3064 5.19295 22.1635 3.51472 20.4853C1.83649 18.8071 0.693597 16.6689 0.230575 14.3411C-0.232448 12.0133 0.00519168 9.6005 0.913444 7.4078C1.8217 5.21509 3.35977 3.34094 5.33316 2.02236C7.30655 0.70379 9.62662 0 12 0V6C10.8133 6 9.65327 6.35189 8.66658 7.01118C7.67988 7.67047 6.91085 8.6075 6.45672 9.7039C6.0026 10.8003 5.88378 12.0067 6.11529 13.1705C6.3468 14.3344 6.91824 15.4035 7.75736 16.2426C8.59647 17.0818 9.66557 17.6532 10.8295 17.8847C11.9933 18.1162 13.1997 17.9974 14.2961 17.5433C15.3925 17.0892 16.3295 16.3201 16.9888 15.3334C17.6481 14.3467 18 13.1867 18 12H24Z"/>
    </symbol>

    <symbol viewBox="0 0 80 16" id="startico-icon">
    <path d="M6.7 15.3C6.1933 15.3 5.7567 15.2433 5.39 15.13C5.03 15.0167 4.73 14.9033 4.49 14.79C4.2567 14.6767 4.07 14.62 3.93 14.62C3.79 14.62 3.6633 14.6567 3.55 14.73C3.4433 14.8033 3.34 14.8867 3.24 14.98C3.14 15.0733 3.0333 15.1567 2.92 15.23C2.8133 15.3033 2.6933 15.34 2.56 15.34C2.3933 15.34 2.2533 15.29 2.14 15.19C2.0333 15.09 1.96 14.9267 1.92 14.7L1.29 11.3C1.27 11.14 1.2933 11.0033 1.36 10.89C1.4333 10.77 1.5567 10.68 1.73 10.62C1.9167 10.5533 2.0767 10.5567 2.21 10.63C2.35 10.6967 2.4733 10.83 2.58 11.03C2.9867 11.8233 3.4 12.4433 3.82 12.89C4.24 13.3367 4.6667 13.6533 5.1 13.84C5.5333 14.02 5.9767 14.11 6.43 14.11C7.05 14.11 7.54 13.9567 7.9 13.65C8.2667 13.3367 8.4533 12.91 8.46 12.37C8.46 12.01 8.3733 11.69 8.2 11.41C8.0333 11.13 7.7067 10.86 7.22 10.6C6.7333 10.3333 6.0167 10.0533 5.07 9.76C4.0367 9.44 3.21 9.0667 2.59 8.64C1.97 8.2067 1.52 7.6933 1.24 7.1C0.966702 6.5 0.830002 5.8 0.830002 5C0.830002 4.1667 1.03 3.43 1.43 2.79C1.8367 2.14333 2.4067 1.64 3.14 1.28C3.88 0.919997 4.7467 0.739997 5.74 0.739997C6.3133 0.739997 6.79 0.796667 7.17 0.909997C7.5567 1.01667 7.88 1.12667 8.14 1.24C8.4 1.34667 8.62 1.4 8.8 1.4C8.96 1.4 9.0933 1.34333 9.2 1.23C9.3133 1.11 9.43 0.993327 9.55 0.879997C9.6767 0.759997 9.8433 0.699997 10.05 0.699997C10.2167 0.699997 10.36 0.756667 10.48 0.869997C10.6 0.976667 10.7033 1.18 10.79 1.48L11.71 4.82C11.77 5.0267 11.7633 5.21 11.69 5.37C11.6167 5.5233 11.4933 5.63 11.32 5.69C11.1333 5.7433 10.97 5.7367 10.83 5.67C10.69 5.5967 10.5733 5.47 10.48 5.29C10.0467 4.4433 9.59 3.77667 9.11 3.29C8.63 2.79667 8.14 2.44667 7.64 2.24C7.1467 2.03333 6.6567 1.93 6.17 1.93C5.5633 1.93 5.0867 2.10333 4.74 2.45C4.3933 2.79 4.22 3.23667 4.22 3.79C4.22 4.1367 4.3 4.4567 4.46 4.75C4.62 5.0367 4.9367 5.3233 5.41 5.61C5.89 5.89 6.59 6.1933 7.51 6.52C8.5433 6.8867 9.3667 7.2867 9.98 7.72C10.5933 8.1467 11.0333 8.6367 11.3 9.19C11.5733 9.7367 11.71 10.3767 11.71 11.11C11.71 11.8833 11.51 12.5867 11.11 13.22C10.71 13.8533 10.1367 14.36 9.39 14.74C8.65 15.1133 7.7533 15.3 6.7 15.3ZM13.6391 6.58L13.2291 6.44C13.0824 6.3867 12.9757 6.32 12.9091 6.24C12.8424 6.16 12.8091 6.0667 12.8091 5.96C12.8091 5.8067 12.8624 5.69 12.9691 5.61C13.0757 5.5233 13.2124 5.48 13.3791 5.48H13.9691C14.1091 5.48 14.2324 5.45 14.3391 5.39C14.4457 5.33 14.5657 5.22 14.6991 5.06L16.1191 3.45C16.2857 3.26333 16.4457 3.12333 16.5991 3.03C16.7524 2.93667 16.9024 2.89 17.0491 2.89C17.2091 2.89 17.3357 2.94333 17.4291 3.05C17.5224 3.15667 17.5691 3.30667 17.5691 3.5V11.78C17.5691 12.2667 17.6557 12.6367 17.8291 12.89C18.0091 13.1367 18.2591 13.26 18.5791 13.26C18.8257 13.26 19.0157 13.2067 19.1491 13.1C19.2824 12.9933 19.3891 12.87 19.4691 12.73C19.5557 12.5833 19.6391 12.4533 19.7191 12.34C19.8057 12.2267 19.9191 12.1633 20.0591 12.15C20.1657 12.15 20.2524 12.1867 20.3191 12.26C20.3857 12.3333 20.4191 12.4633 20.4191 12.65C20.4124 13.1233 20.2691 13.5567 19.9891 13.95C19.7091 14.3433 19.3191 14.6567 18.8191 14.89C18.3257 15.1233 17.7624 15.24 17.1291 15.24C16.1624 15.24 15.4091 15.0033 14.8691 14.53C14.3357 14.0567 14.0691 13.34 14.0691 12.38V7.18C14.0691 7 14.0357 6.87 13.9691 6.79C13.9024 6.7033 13.7924 6.6333 13.6391 6.58ZM16.2991 6.63V5.48H19.7691C19.9424 5.48 20.0791 5.5167 20.1791 5.59C20.2791 5.6633 20.3291 5.7667 20.3291 5.9C20.3291 6.1067 20.2291 6.28 20.0291 6.42C19.8291 6.56 19.4991 6.63 19.0391 6.63H16.2991ZM27.4617 13.7V13.48L27.2117 13.46V7.22C27.2117 6.86 27.1184 6.5767 26.9317 6.37C26.7451 6.1633 26.4884 6.06 26.1617 6.06C25.8751 6.06 25.6451 6.1267 25.4717 6.26C25.2984 6.3867 25.2117 6.5467 25.2117 6.74V7.72C25.2117 8.2 25.0484 8.5733 24.7217 8.84C24.4017 9.1 23.9484 9.23 23.3617 9.23C22.8551 9.23 22.4751 9.1167 22.2217 8.89C21.9751 8.6633 21.8517 8.35 21.8517 7.95C21.8517 7.5233 22.0351 7.1033 22.4017 6.69C22.7684 6.27 23.3184 5.9233 24.0517 5.65C24.7851 5.37 25.6984 5.23 26.7917 5.23C28.1051 5.23 29.0817 5.4833 29.7217 5.99C30.3617 6.49 30.6817 7.1767 30.6817 8.05V13.04C30.6817 13.2 30.7151 13.3267 30.7817 13.42C30.8551 13.5067 30.9584 13.55 31.0917 13.55C31.2184 13.55 31.3184 13.5167 31.3917 13.45C31.4651 13.3833 31.5284 13.3133 31.5817 13.24C31.6284 13.2 31.6717 13.1633 31.7117 13.13C31.7517 13.0967 31.8017 13.08 31.8617 13.08C31.9617 13.08 32.0317 13.1167 32.0717 13.19C32.1117 13.2567 32.1317 13.3433 32.1317 13.45C32.1317 13.7033 32.0384 13.97 31.8517 14.25C31.6717 14.53 31.3984 14.77 31.0317 14.97C30.6717 15.1633 30.2217 15.26 29.6817 15.26C29.0151 15.26 28.4784 15.1167 28.0717 14.83C27.6651 14.5433 27.4617 14.1667 27.4617 13.7ZM21.4517 12.89C21.4517 12.0233 21.8384 11.3333 22.6117 10.82C23.3917 10.3 24.4917 10.04 25.9117 10.04C26.3184 10.04 26.6784 10.0733 26.9917 10.14C27.3117 10.2 27.5817 10.2867 27.8017 10.4L27.5317 11.12C27.3451 11.0267 27.1617 10.9567 26.9817 10.91C26.8017 10.8633 26.6051 10.84 26.3917 10.84C25.9584 10.84 25.6151 10.9667 25.3617 11.22C25.1151 11.4733 24.9917 11.8333 24.9917 12.3C24.9917 12.7667 25.1051 13.1233 25.3317 13.37C25.5584 13.6167 25.8517 13.74 26.2117 13.74C26.4851 13.74 26.7451 13.6767 26.9917 13.55C27.2451 13.4233 27.4484 13.2567 27.6017 13.05L27.8217 13.71C27.4817 14.2033 27.0084 14.5867 26.4017 14.86C25.7951 15.1267 25.1451 15.26 24.4517 15.26C23.5584 15.26 22.8351 15.04 22.2817 14.6C21.7284 14.1533 21.4517 13.5833 21.4517 12.89ZM37.0952 9.63C37.0952 8.6433 37.2318 7.8233 37.5052 7.17C37.7785 6.51 38.1352 6.02 38.5752 5.7C39.0152 5.3733 39.4952 5.21 40.0152 5.21C40.6752 5.21 41.1852 5.4067 41.5452 5.8C41.9052 6.1867 42.0852 6.76 42.0852 7.52C42.0852 8.2467 41.9352 8.7867 41.6352 9.14C41.3352 9.4933 40.9485 9.67 40.4752 9.67C40.0018 9.67 39.6418 9.5467 39.3952 9.3C39.1552 9.0467 39.0318 8.6967 39.0252 8.25V7.86C39.0185 7.6667 38.9752 7.5233 38.8952 7.43C38.8152 7.33 38.6852 7.28 38.5052 7.28C38.3252 7.28 38.1552 7.36 37.9952 7.52C37.8352 7.6733 37.7052 7.9133 37.6052 8.24C37.5118 8.5667 37.4652 8.9967 37.4652 9.53L37.0952 9.63ZM37.2552 5.98L37.4652 8.21V13.2C37.4652 13.4067 37.4985 13.5567 37.5652 13.65C37.6385 13.7433 37.7818 13.8067 37.9952 13.84L38.8052 13.99C38.9785 14.0233 39.1052 14.08 39.1852 14.16C39.2652 14.24 39.3052 14.3567 39.3052 14.51C39.3052 14.6633 39.2518 14.7833 39.1452 14.87C39.0385 14.9567 38.8818 15 38.6752 15H33.5752C33.3618 15 33.2052 14.9567 33.1052 14.87C33.0052 14.7833 32.9552 14.6633 32.9552 14.51C32.9552 14.4033 32.9852 14.31 33.0452 14.23C33.1052 14.1433 33.2018 14.0733 33.3352 14.02L33.6552 13.92C33.7618 13.88 33.8385 13.81 33.8852 13.71C33.9385 13.61 33.9652 13.4433 33.9652 13.21V7.92C33.9652 7.74 33.9385 7.61 33.8852 7.53C33.8318 7.45 33.7485 7.3967 33.6352 7.37L33.2552 7.32C33.1285 7.28 33.0352 7.2267 32.9752 7.16C32.9218 7.0867 32.8952 6.9967 32.8952 6.89C32.8952 6.7567 32.9318 6.65 33.0052 6.57C33.0852 6.49 33.2218 6.4167 33.4152 6.35L35.4652 5.6C35.8518 5.4467 36.1318 5.35 36.3052 5.31C36.4785 5.2633 36.6118 5.24 36.7052 5.24C36.8652 5.24 36.9852 5.2967 37.0652 5.41C37.1518 5.5233 37.2152 5.7133 37.2552 5.98ZM43.4438 6.58L43.0338 6.44C42.8871 6.3867 42.7804 6.32 42.7138 6.24C42.6471 6.16 42.6138 6.0667 42.6138 5.96C42.6138 5.8067 42.6671 5.69 42.7738 5.61C42.8804 5.5233 43.0171 5.48 43.1838 5.48H43.7738C43.9138 5.48 44.0371 5.45 44.1438 5.39C44.2504 5.33 44.3704 5.22 44.5038 5.06L45.9238 3.45C46.0904 3.26333 46.2504 3.12333 46.4038 3.03C46.5571 2.93667 46.7071 2.89 46.8538 2.89C47.0138 2.89 47.1404 2.94333 47.2338 3.05C47.3271 3.15667 47.3738 3.30667 47.3738 3.5V11.78C47.3738 12.2667 47.4604 12.6367 47.6338 12.89C47.8138 13.1367 48.0638 13.26 48.3838 13.26C48.6304 13.26 48.8204 13.2067 48.9538 13.1C49.0871 12.9933 49.1938 12.87 49.2738 12.73C49.3604 12.5833 49.4438 12.4533 49.5238 12.34C49.6104 12.2267 49.7238 12.1633 49.8638 12.15C49.9704 12.15 50.0571 12.1867 50.1238 12.26C50.1904 12.3333 50.2238 12.4633 50.2238 12.65C50.2171 13.1233 50.0738 13.5567 49.7938 13.95C49.5138 14.3433 49.1238 14.6567 48.6238 14.89C48.1304 15.1233 47.5671 15.24 46.9338 15.24C45.9671 15.24 45.2138 15.0033 44.6738 14.53C44.1404 14.0567 43.8738 13.34 43.8738 12.38V7.18C43.8738 7 43.8404 6.87 43.7738 6.79C43.7071 6.7033 43.5971 6.6333 43.4438 6.58ZM46.1038 6.63V5.48H49.5738C49.7471 5.48 49.8838 5.5167 49.9838 5.59C50.0838 5.6633 50.1338 5.7667 50.1338 5.9C50.1338 6.1067 50.0338 6.28 49.8338 6.42C49.6338 6.56 49.3038 6.63 48.8438 6.63H46.1038ZM55.7464 5.97V13.21C55.7464 13.4367 55.7697 13.6033 55.8164 13.71C55.8631 13.81 55.9431 13.88 56.0564 13.92L56.3564 14.02C56.4964 14.0733 56.5964 14.14 56.6564 14.22C56.7164 14.3 56.7464 14.3967 56.7464 14.51C56.7464 14.6633 56.6964 14.7833 56.5964 14.87C56.4964 14.9567 56.3364 15 56.1164 15H51.8564C51.6431 15 51.4864 14.9567 51.3864 14.87C51.2864 14.7833 51.2364 14.6633 51.2364 14.51C51.2364 14.4033 51.2664 14.31 51.3264 14.23C51.3864 14.1433 51.4831 14.0733 51.6164 14.02L51.9364 13.92C52.0431 13.88 52.1197 13.81 52.1664 13.71C52.2197 13.61 52.2464 13.4433 52.2464 13.21V7.9C52.2464 7.7133 52.2197 7.58 52.1664 7.5C52.1131 7.42 52.0297 7.3667 51.9164 7.34L51.5364 7.29C51.4097 7.2567 51.3164 7.2067 51.2564 7.14C51.2031 7.0667 51.1764 6.9733 51.1764 6.86C51.1764 6.7333 51.2131 6.6333 51.2864 6.56C51.3597 6.48 51.4964 6.4 51.6964 6.32L53.8064 5.55C54.0997 5.43 54.3331 5.35 54.5064 5.31C54.6797 5.2633 54.8331 5.24 54.9664 5.24C55.2264 5.24 55.4197 5.31 55.5464 5.45C55.6797 5.5833 55.7464 5.7567 55.7464 5.97ZM53.7864 4.04C53.1464 4.04 52.6397 3.88667 52.2664 3.58C51.8931 3.26667 51.7064 2.84667 51.7064 2.32C51.7064 1.80667 51.8931 1.39667 52.2664 1.09C52.6397 0.783327 53.1464 0.629997 53.7864 0.629997C54.4197 0.629997 54.9231 0.783327 55.2964 1.09C55.6764 1.39667 55.8664 1.80667 55.8664 2.32C55.8664 2.84667 55.6764 3.26667 55.2964 3.58C54.9231 3.88667 54.4197 4.04 53.7864 4.04ZM67.2675 8.12C67.2675 8.56 67.1075 8.9333 66.7875 9.24C66.4675 9.54 66.0408 9.69 65.5075 9.69C64.9875 9.69 64.5942 9.55 64.3275 9.27C64.0608 8.9833 63.9275 8.6167 63.9275 8.17V7.82C63.9275 7.38 63.8142 7.03 63.5875 6.77C63.3608 6.5033 63.0575 6.37 62.6775 6.37C62.3508 6.37 62.0542 6.48 61.7875 6.7C61.5208 6.9133 61.3075 7.23 61.1475 7.65C60.9875 8.0633 60.9075 8.5733 60.9075 9.18C60.9075 9.9867 61.0442 10.6667 61.3175 11.22C61.5908 11.7667 61.9642 12.1833 62.4375 12.47C62.9175 12.75 63.4608 12.89 64.0675 12.89C64.5742 12.89 65.0175 12.8033 65.3975 12.63C65.7842 12.4567 66.1208 12.1867 66.4075 11.82C66.5542 11.6733 66.6675 11.5767 66.7475 11.53C66.8342 11.4767 66.9175 11.45 66.9975 11.45C67.1108 11.45 67.1942 11.5067 67.2475 11.62C67.3008 11.7267 67.3275 11.8567 67.3275 12.01C67.3075 12.5967 67.1075 13.1367 66.7275 13.63C66.3475 14.1233 65.8275 14.52 65.1675 14.82C64.5142 15.1133 63.7575 15.26 62.8975 15.26C61.9108 15.26 61.0342 15.0633 60.2675 14.67C59.5008 14.27 58.8942 13.7133 58.4475 13C58.0008 12.28 57.7775 11.44 57.7775 10.48C57.7775 9.4733 57.9975 8.5733 58.4375 7.78C58.8775 6.9867 59.4942 6.36 60.2875 5.9C61.0875 5.44 62.0275 5.21 63.1075 5.21C63.9675 5.21 64.7075 5.3433 65.3275 5.61C65.9475 5.87 66.4242 6.22 66.7575 6.66C67.0975 7.1 67.2675 7.5867 67.2675 8.12ZM74.001 5.21C75.074 5.21 76.014 5.4233 76.821 5.85C77.634 6.2767 78.264 6.87 78.711 7.63C79.164 8.3833 79.391 9.2633 79.391 10.27C79.391 11.21 79.154 12.0567 78.681 12.81C78.214 13.5633 77.567 14.16 76.741 14.6C75.914 15.04 74.957 15.26 73.871 15.26C72.797 15.26 71.857 15.0467 71.051 14.62C70.244 14.1867 69.614 13.5933 69.161 12.84C68.707 12.08 68.481 11.2033 68.481 10.21C68.481 9.25 68.714 8.3967 69.181 7.65C69.654 6.8967 70.304 6.3033 71.131 5.87C71.957 5.43 72.914 5.21 74.001 5.21ZM74.711 14.06C75.064 14 75.344 13.81 75.551 13.49C75.757 13.1633 75.874 12.7067 75.901 12.12C75.934 11.5267 75.864 10.7967 75.691 9.93C75.531 9.0767 75.324 8.38 75.071 7.84C74.817 7.2933 74.527 6.9 74.201 6.66C73.881 6.42 73.534 6.3367 73.161 6.41C72.807 6.4767 72.527 6.6733 72.321 7C72.121 7.32 72.007 7.7733 71.981 8.36C71.954 8.9467 72.021 9.6767 72.181 10.55C72.347 11.39 72.557 12.0833 72.811 12.63C73.064 13.1767 73.351 13.57 73.671 13.81C73.997 14.0433 74.344 14.1267 74.711 14.06Z"/>
    </symbol>

    <symbol width="31" height="30" viewBox="0 0 31 30" id="box-icon">
    <path d="M30.16 10.11C30.1601 8.1197 29.5591 6.17573 28.4357 4.53279C27.3123 2.88985 25.7188 1.6245 23.8641 0.9025C22.0094 0.18049 19.9798 0.0354902 18.0413 0.48648C16.1027 0.93747 14.3456 1.96343 13 3.42997H0.52002V29.77H26.87V17.46C27.9042 16.535 28.7318 15.4023 29.2987 14.1358C29.8656 12.8693 30.1591 11.4976 30.16 10.11ZM25.09 10.11C25.092 11.0637 24.811 11.9966 24.2826 12.7906C23.7541 13.5845 23.0021 14.2039 22.1215 14.5702C21.2409 14.9366 20.2715 15.0335 19.3358 14.8486C18.4002 14.6638 17.5404 14.2055 16.8653 13.5318C16.1902 12.8581 15.7302 11.9993 15.5434 11.064C15.3566 10.1288 15.4515 9.1591 15.816 8.2778C16.1805 7.39643 16.7983 6.64306 17.5911 6.11299C18.384 5.58292 19.3163 5.29998 20.27 5.29997C21.5466 5.29997 22.7711 5.80642 23.6747 6.70818C24.5784 7.60994 25.0874 8.8334 25.09 10.11ZM21.8 24.7H5.59002V8.5H10.53C10.4346 9.0315 10.3844 9.5701 10.38 10.11C10.3827 12.7322 11.4255 15.2462 13.2797 17.1004C15.1338 18.9545 17.6478 19.9974 20.27 20C20.7827 19.9973 21.2943 19.9538 21.8 19.87V24.7Z" fill="white"/>
    </symbol>

    <symbol width="28" height="24" viewBox="0 0 28 24" id="burger-icon">
    <path d="M0.41 10.3847C1.14777 7.4194 2.85643 4.7861 5.2639 2.90424C7.6714 1.02234 10.6393 0 13.695 0C16.7507 0 19.7186 1.02234 22.1261 2.90424C24.5336 4.7861 26.2422 7.4194 26.98 10.3847H25.78C23.7557 10.3549 21.7729 10.9599 20.11 12.1147C20.014 12.1842 19.9138 12.2477 19.81 12.3047H19.67C19.5662 12.2477 19.466 12.1842 19.37 12.1147C17.6924 10.9866 15.7166 10.3841 13.695 10.3841C11.6734 10.3841 9.6976 10.9866 8.02 12.1147C7.924 12.1842 7.8238 12.2477 7.72 12.3047H7.58C7.4762 12.2477 7.376 12.1842 7.28 12.1147C5.6171 10.9599 3.6343 10.3549 1.61 10.3847H0.41ZM23.62 16.6547C24.236 16.175 24.9995 15.924 25.78 15.9447H27.39V12.7347H25.78C24.4052 12.7181 23.0619 13.146 21.95 13.9547C21.3243 14.416 20.5674 14.6649 19.79 14.6649C19.0126 14.6649 18.2557 14.416 17.63 13.9547C16.4899 13.1611 15.1341 12.7356 13.745 12.7356C12.3559 12.7356 11.0001 13.1611 9.86 13.9547C9.2343 14.416 8.4774 14.6649 7.7 14.6649C6.9226 14.6649 6.1657 14.416 5.54 13.9547C4.4144 13.1356 3.0518 12.7072 1.66 12.7347H0V15.9447H1.61C2.39051 15.924 3.154 16.175 3.77 16.6547C4.908 17.4489 6.2623 17.8747 7.65 17.8747C9.0377 17.8747 10.392 17.4489 11.53 16.6547C12.1468 16.1765 12.9097 15.9257 13.69 15.9447C14.4708 15.9223 15.2348 16.1735 15.85 16.6547C16.9901 17.4484 18.3459 17.8738 19.735 17.8738C21.1241 17.8738 22.4799 17.4484 23.62 16.6547ZM23.62 22.3947C24.236 21.915 24.9995 21.664 25.78 21.6847H27.39V18.4747H25.78C24.4052 18.4581 23.0619 18.886 21.95 19.6947C21.3243 20.156 20.5674 20.4049 19.79 20.4049C19.0126 20.4049 18.2557 20.156 17.63 19.6947C16.4899 18.9011 15.1341 18.4757 13.745 18.4757C12.3559 18.4757 11.0001 18.9011 9.86 19.6947C9.2343 20.156 8.4774 20.4049 7.7 20.4049C6.9226 20.4049 6.1657 20.156 5.54 19.6947C4.4144 18.8757 3.0518 18.4472 1.66 18.4747H0V21.6847H1.61C2.39051 21.664 3.154 21.915 3.77 22.3947C4.908 23.1889 6.2623 23.6147 7.65 23.6147C9.0377 23.6147 10.392 23.1889 11.53 22.3947C12.1468 21.9165 12.9097 21.6657 13.69 21.6847C14.4708 21.6623 15.2348 21.9135 15.85 22.3947C16.9901 23.1884 18.3459 23.6138 19.735 23.6138C21.1241 23.6138 22.4799 23.1884 23.62 22.3947Z" fill="white"/>
    </symbol>

    <symbol width="14" height="30" viewBox="0 0 14 30" id="rectangle_figure-icon">
    <path d="M13.45 4.65002V0.400024H0.0499878V29.6H13.45V25.35C10.705 25.35 8.0724 24.2595 6.13143 22.3185C4.19043 20.3775 3.09999 17.745 3.09999 15C3.09999 12.255 4.19043 9.62241 6.13143 7.68147C8.0724 5.74047 10.705 4.65002 13.45 4.65002Z" fill="white"/>
    </symbol>

    <symbol width="11" height="22" viewBox="0 0 11 22" id="semicircle_figure-icon">
    <path d="M0.450012 0.650024V21.35C3.19501 21.35 5.82761 20.2595 7.76861 18.3185C9.70961 16.3775 10.8 13.745 10.8 11C10.8 8.255 9.70961 5.6224 7.76861 3.68147C5.82761 1.74047 3.19501 0.650024 0.450012 0.650024Z" fill="white"/>
    </symbol>

    <symbol viewBox="0 0 6 11" id="bracket_figure-icon">
    <path fill-rule="evenodd" clip-rule="evenodd" d="M5.7937 4.85071C5.9743 5.03133 5.9743 5.32412 5.7937 5.50473L1.0784 10.22C0.897777 10.4006 0.604997 10.4006 0.424377 10.22L0.206327 10.002C0.0257068 9.82139 0.0257068 9.52849 0.206327 9.34789L4.37654 5.17772L0.206327 1.00751C0.0257068 0.826895 0.0257068 0.534104 0.206327 0.353484L0.424377 0.135434C0.604987 -0.0451855 0.897777 -0.0451855 1.0784 0.135434L5.7937 4.85071Z"/>
    </symbol>



    <symbol width="11" height="22" viewBox="0 0 11 22" id="connection_double-icon">
    <path d="M0.450012 0.650024V21.35C3.19501 21.35 5.82761 20.2595 7.76861 18.3185C9.70961 16.3775 10.8 13.745 10.8 11C10.8 8.255 9.70961 5.6224 7.76861 3.68147C5.82761 1.74047 3.19501 0.650024 0.450012 0.650024Z" fill="white"/>
    </symbol>

    <symbol width="26" height="26" viewBox="0 0 26 26" id="connection_triple-icon">
    <path d="M13.042 16.636L13.023 16.618C13.5583 16.6719 14.0989 16.6062 14.6058 16.4256C15.1126 16.245 15.573 15.9541 15.9536 15.5738C16.3341 15.1935 16.6255 14.7333 16.8064 14.2266C16.9874 13.7199 17.0535 13.1794 17 12.644L17.019 12.662C16.9658 12.0321 17.0508 11.3983 17.2678 10.8046C17.4849 10.211 17.829 9.6719 18.2759 9.2249C18.7229 8.778 19.262 8.4339 19.8556 8.2169C20.4493 7.99976 21.0831 7.91483 21.713 7.968L21.694 7.95C22.4475 8.0208 23.2044 7.85736 23.8616 7.4821C24.5189 7.10684 25.0443 6.53797 25.3663 5.8531C25.6883 5.16824 25.7912 4.40071 25.661 3.6552C25.5308 2.90969 25.1738 2.22251 24.6386 1.68737C24.1035 1.15224 23.4163 0.795196 22.6708 0.664976C21.9253 0.534746 21.1578 0.637656 20.4729 0.959676C19.788 1.28169 19.2192 1.80714 18.8439 2.46435C18.4686 3.12155 18.3052 3.87852 18.376 4.632L18.358 4.613C18.4113 5.24289 18.3265 5.87683 18.1095 6.47055C17.8925 7.06427 17.5484 7.60346 17.1015 8.0505C16.6545 8.4974 16.1153 8.8415 15.5216 9.0585C14.9278 9.2755 14.2939 9.3603 13.664 9.307L13.682 9.326C13.1467 9.2721 12.606 9.3378 12.0992 9.5184C11.5924 9.6989 11.132 9.9899 10.7514 10.3702C10.3708 10.7505 10.0795 11.2107 9.8985 11.7174C9.7176 12.2241 9.6515 12.7646 9.705 13.3L9.687 13.282C9.74 13.9118 9.6549 14.5456 9.4378 15.1392C9.2206 15.7327 8.8766 16.2718 8.4297 16.7187C7.98273 17.1656 7.44369 17.5096 6.85013 17.7268C6.25657 17.9439 5.62278 18.029 4.99297 17.976L5.01097 17.994C4.25749 17.9232 3.50052 18.0866 2.84331 18.4619C2.18611 18.8372 1.66066 19.406 1.33865 20.0909C1.01663 20.7758 0.913711 21.5433 1.04394 22.2888C1.17417 23.0343 1.53121 23.7215 2.06634 24.2566C2.60148 24.7918 3.28866 25.1488 4.03417 25.279C4.77968 25.4092 5.54721 25.3063 6.23208 24.9843C6.91694 24.6623 7.48581 24.1369 7.86107 23.4797C8.2364 22.8224 8.3998 22.0655 8.329 21.312L8.348 21.33C8.2948 20.7001 8.3798 20.0663 8.5969 19.4726C8.8139 18.879 9.158 18.3399 9.6049 17.8929C10.0519 17.446 10.591 17.1019 11.1846 16.8849C11.7783 16.6678 12.4121 16.5828 13.042 16.636Z" fill="white"/>
    </symbol>



    <symbol width="57" height="50" viewBox="0 0 57 50" id="1_ring-icon">
    <path d="M15.5006 49.9042C30.4851 49.9042 56.0774 25.9027 56.0774 11.8878C56.0774 2.90827 43.7869 -2.12661 32.0848 1.98549C0.598993 13.0635 -12.1122 49.9042 15.5006 49.9042ZM15.5845 36.6447C18.4463 26.7419 26.0235 17.9301 36.3785 12.3075C42.5238 8.95061 42.6917 8.95061 41.5136 12.3075C38.3141 21.8745 13.0584 45.5403 15.5845 36.6447Z" fill="#DDF0A7"/>
    </symbol>

    <symbol width="62" height="48" viewBox="0 0 62 48" id="2_ring-icon">
    <path d="M37.7371 41.8688C67.6221 24.0774 70.4849 -5.46294 41.693 1.5865C22.9204 6.20212 5.99843 23.9096 2.29427 31.2108C-1.40989 38.6797 0.27382 43.715 6.33517 42.708C7.51427 42.5401 8.44056 42.6241 8.44056 42.9598C8.44056 49.3378 26.3718 48.6664 37.7371 41.8688ZM25.6144 24.1606C34.9582 16.272 49.6909 8.21644 49.6909 10.9858C49.6909 15.6853 29.3185 34.3998 19.8048 38.3441C13.8284 40.7778 18.0372 30.5386 25.6144 24.1606Z" fill="#DDF0A7"/>
    </symbol>

    <symbol width="40" height="57" viewBox="0 0 40 57" id="3_ring-icon">
    <path d="M34.2245 29.1159C46.3472 11.3249 34.813 -5.54242 16.2926 2.84971C-0.292021 10.4026 -12.3306 28.0252 -15.5296 49.5091C-18.0552 66.2097 19.3229 50.8518 34.2245 29.1159ZM-0.881271 41.2853C5.01171 27.5222 13.5145 16.8645 22.9431 11.4097C27.9943 8.4724 28.5838 8.80808 27.6575 14.0952C26.4794 20.2218 11.2414 38.5161 2.40201 44.1391C-3.65944 47.999 -3.74357 47.999 -0.881271 41.2853Z" fill="#DDF0A7"/>
    </symbol>

    <symbol width="59" height="50" viewBox="0 0 59 50" id="4_ring-icon">
    <path d="M3.14551 49.1663C3.81899 48.4103 7.27034 42.1169 7.60708 41.6129C8.53338 44.5504 10.9745 46.9002 13.9212 47.7389C23.6868 50.5927 36.0622 43.2913 49.8686 26.1715C55.0876 19.7096 57.8655 14.5903 58.2023 10.6461C60.2227 -12.1806 2.72484 5.35896 0.367649 42.1169C0.0309078 47.5716 1.62967 51.5998 3.14551 49.1663ZM22.2558 23.0664C34.5464 10.73 49.363 2.50573 47.7633 8.88376C46.4163 14.4226 39.008 22.6469 31.3479 29.0249C26.2118 33.3891 16.783 40.2701 14.7626 38.1724C11.648 34.8992 22.1709 23.1503 22.2558 23.0664Z" fill="#DDF0A7"/>
    </symbol>

    <symbol width="60" height="44" viewBox="0 0 60 44" id="5_ring-icon">
    <path d="M38.4279 1.48458C19.6553 6.60383 0.965622 22.9684 0.965622 34.4657C0.965622 39.8367 6.18563 43.7812 8.37394 39.9204C9.04742 38.746 9.72089 38.8296 14.4353 41.1794C27.1475 47.5575 49.3725 36.8145 57.7071 20.45C64.273 7.61008 53.8341 -2.71149 38.4279 1.48458ZM47.0992 12.1426C43.7318 21.8775 15.6144 40.0887 13.2572 33.9617C11.9942 30.7732 29.5047 17.0101 41.2907 11.8908C48.2783 8.78578 48.1934 8.86966 47.0992 12.1426Z" fill="#DDF0A7"/>
    </symbol>
    
    <symbol  width="40" height="58" viewBox="0 0 40 58" id="6_ring-icon">
    <path d="M18.3127 2.44153C8.21085 6.04939 -8.20535 24.3437 -8.20535 32.0645C-8.20535 32.6522 -9.55232 35.9244 -11.1519 39.2812C-19.9072 57.4929 0.213084 64.122 18.4816 49.1008C46.6839 25.8538 46.599 -7.62904 18.3127 2.44153ZM28.4149 13.6018C22.4385 33.3236 -4.16455 50.0232 -0.712899 46.8347C-1.89149 47.254 -3.15443 46.248 -2.90182 44.9889C-0.79724 34.6673 13.4303 17.379 24.9636 11.253C29.2573 8.98689 29.7619 9.32156 28.4149 13.6018Z" fill="#DDF0A7"/>
    </symbol>

    <symbol  width="59" height="56" viewBox="0 0 59 56" id="7_ring-icon">
    <path d="M36.924 1.46068C17.6458 8.17439 -6.43168 38.1341 1.98686 44.7641C3.16596 45.6865 4.09225 47.0302 4.09225 47.7853C4.09225 65.8286 45.0059 47.7006 55.6137 25.0423C63.4427 8.59375 53.1716 -4.24597 36.924 1.46068ZM45.7633 14.8034C42.3958 25.126 20.5926 45.5201 13.0154 45.7712C7.88035 45.9395 14.3624 36.7923 15.6254 34.8619C19.7502 28.4002 34.0622 15.7278 42.144 11.2802C47.2791 8.4264 47.6998 8.92942 45.7633 14.8034Z" fill="#DDF0A7"/>
    </symbol>

    <symbol width="65" height="48" viewBox="0 0 65 48" id="8_ring-icon">
    <path d="M43.4688 2.23688C21.6655 9.03426 -5.27382 35.1341 1.12427 43.1905C10.1313 54.6038 41.785 42.4345 59.6323 20.6149C70.577 7.18748 61.3161 -3.3861 43.4688 2.23688ZM52.1401 12.8105C47.4257 21.5383 11.4783 44.8679 7.69022 42.4345C5.16516 40.8397 7.10067 37.7349 10.2163 38.2379C13.3309 38.8256 13.4988 38.6572 18.5499 33.0353C24.948 25.9012 35.6398 16.502 44.1422 11.8024C51.7194 7.69051 53.4032 10.5453 52.1401 12.8105Z" fill="#DDF0A7"/>
    </symbol>

    <symbol width="160" height="250" viewBox="0 0 160 250" id="ring_figure-icon">
    <path fill-rule="evenodd" clip-rule="evenodd" d="M42.1799 247.359C5.84072 247.624 -35.5739 258.104 -61.6848 232.907C-87.948 207.565 -84.1869 165.577 -80.0941 129.368C-76.5345 97.8767 -62.5363 69.7826 -40.6483 46.7994C-18.0476 23.0681 9.48987 3.94423 42.1799 0.97637C77.9574 -2.27174 117.828 3.40785 141.608 30.253C164.647 56.2633 155.4 94.6729 155.906 129.368C156.424 164.939 169.265 205.752 144.538 231.405C119.666 257.212 78.0798 247.098 42.1799 247.359Z" fill="#1F3847"/>
    </symbol>


    <symbol width="51" height="32" viewBox="0 0 51 32" id="1_check_mark-icon">
    <path d="M13.2307 3.64713C14.7448 5.34299 17.4893 9.2058 19.2874 12.4091C26.9529 26.1645 29.2242 26.0703 37.7414 11.938C45.3123 -0.68676 54.0188 1.10332 49.3816 14.1992C43.3249 31.3463 19.382 37.7519 8.30957 25.2213C-7.11609 7.79159 5.09195 -5.30329 13.2307 3.64713Z" fill="#DDF0A7"/>
    </symbol>

    <symbol width="52" height="33" viewBox="0 0 52 33" id="2_check_mark-icon">
    <path d="M10.11 27.4769C5.37815 23.3314 1.87662 16.3594 0.551716 10.8007C-1.24637 2.8867 9.54214 -7.8537 18.3433 11.0835C25.0624 25.5926 32.2548 27.3827 38.0281 15.9827C43.8009 4.48845 54.7787 4.771 51.2771 16.2652C47.0185 30.5859 21.6556 37.4637 10.11 27.4769Z" fill="#DDF0A7"/>
    </symbol>

    <symbol width="27" height="33" viewBox="0 0 27 33" id="3_check_mark-icon">
    <path d="M37.8314 27.0358C22.4058 38.53 3.76248 30.4275 1.11267 11.0193C-0.590778 -1.3229 13.6046 -1.22868 18.715 11.1135C25.1502 26.6589 31.0177 25.2457 34.2353 7.34487C35.2763 1.40933 41.6169 -1.79397 45.213 1.78619C50.0395 6.59115 45.8755 21.006 37.8314 27.0358Z" fill="#DDF0A7"/>
    </symbol>

    <symbol width="52" height="29" viewBox="0 0 52 29" id="4_check_mark-icon">
    <path d="M13.8517 3.27668C15.7444 4.97255 18.6781 8.27007 20.2869 10.6254C28.8042 23.156 31.8325 22.7792 38.0785 8.64693C41.9586 -0.209266 53.3149 -3.22414 50.949 10.1544C46.5011 34.6502 5.33452 34.4618 0.886629 7.23371C-0.249003 0.356021 7.70032 -2.18778 13.8517 3.27668Z" fill="#DDF0A7"/>
    </symbol>

    <symbol  width="49" height="28" viewBox="0 0 49 28" id="5_check_mark-icon">
    <path d="M42.0014 21.7577C30.2665 33.9114 4.99869 26.0915 0.740564 9.03866C-1.62534 -0.288219 13.1374 0.65393 20.4244 10.2635C24.2098 15.3511 27.0489 17.7064 26.9542 17.6122C27.9952 18.5544 29.6987 18.4601 30.5504 17.3296C31.4021 16.199 33.2002 12.713 34.4305 9.50973C37.1749 2.63244 44.6512 -1.60723 48.0581 1.78451C50.5186 4.2341 46.7332 16.8585 42.0014 21.7577Z" fill="#DDF0A7"/>
    </symbol>

    <symbol width="56" height="27" viewBox="0 0 56 27" id="6_check_mark-icon">
    <path d="M11.0691 1.14446C12.5833 1.89818 17.1258 5.76098 21.0059 9.52957C33.4032 21.5891 38.7978 21.5891 43.7189 9.05851C45.9902 3.3114 46.8419 2.55767 50.5327 2.55767C58.1036 2.55767 56.1162 16.6899 47.7883 22.1544C30.7534 33.2717 0.0913086 21.9659 0.0913086 4.53619C0.185945 0.767599 6.52656 -1.21091 11.0691 1.14446Z" fill="#DDF0A7"/>
    </symbol>

    <symbol width="29" height="31" viewBox="0 0 29 31" id="7_check_mark-icon">
    <path d="M1.88242 12.3412C-2.56547 3.57918 3.6805 -3.01587 12.1977 1.60066C14.2797 2.73124 16.8349 5.6519 19.2008 9.51471C27.6234 23.1759 29.5161 23.5537 34.7211 12.5306C37.4656 6.68925 38.7905 5.46446 42.6705 5.46446C50.4297 5.46446 46.7399 20.9157 37.5602 26.6628C24.2165 35.1421 10.7782 29.7709 1.88242 12.3412Z" fill="#DDF0A7"/>
    </symbol>

    <symbol width="43" height="32" viewBox="0 0 43 32" id="8_check_mark-icon">
    <path d="M4.54841 10.2238C10.4158 9.65854 11.8354 10.318 17.6082 16.3478C25.0844 24.1676 31.6143 19.2685 32.8446 4.85358C33.2231 0.142833 36.8193 -0.610876 39.9423 3.25193C51.8664 18.3263 24.9898 39.0526 8.04994 27.841C-0.561935 22.0939 -2.8332 10.8833 4.54841 10.2238Z" fill="#DDF0A7"/>
    </symbol>

    <symbol  width="150" height="240" viewBox="0 0 150 240" id="check_mark_figure-icon">
    <path fill-rule="evenodd" clip-rule="evenodd" d="M126.348 0.264725C95.7687 1.8217 72.5955 24.3121 50.5371 45.4529C27.8537 67.1926 1.13725 89.588 0.448801 120.926C-0.247919 152.638 23.9112 178.074 47.1467 199.775C69.4475 220.605 95.8494 236.313 126.348 238.515C159.303 240.896 195.133 235.913 217.938 212.109C240.415 188.648 240.416 153.318 239.007 120.926C237.676 90.3403 231.269 59.7406 210.332 37.3167C188.659 14.1053 158.138 -1.35392 126.348 0.264725Z" fill="#1F3847"/>
    </symbol>


    <symbol  width="88" height="150" viewBox="0 0 88 150" id="string_1-icon">
    <path d="M69.864 122.29C55.9382 138.315 27.4719 152.629 17.4106 148.652C13.2388 147.001 13.9131 145.043 18.6984 145.043C28.0236 145.043 45.815 135.685 56.3063 125.287C84.8334 96.9681 86.3058 45.4051 59.68 11.7641C54.4039 5.09704 41.0915 0.0203086 36.9806 15.3117C34.1585 25.9545 36.9198 34.7623 42.0731 46.9342C51.1529 68.2203 50.2321 77.7621 38.9438 77.7621C30.3548 77.7621 27.5328 73.8475 17.4106 47.7906C9.25055 26.8108 3.23828 12.3757 1.58233 9.86795C-2.22135 4.17956 4.58797 4.30131 8.88245 10.0509C11.521 13.5985 18.1467 27.4836 20.0481 33.4167C24.2199 46.3226 27.9627 60.8805 34.8947 70.0553C38.453 74.8262 41.2751 75.0092 40.4162 68.4033C39.8645 64.3664 37.7168 58.4338 33.545 49.075C20.6616 20.3884 24.4653 2.03877 43.6064 0.81546C58.3921 -0.102022 68.269 6.56502 76.429 24.8535C93.8523 63.9994 88.8824 100.392 69.864 122.29Z" fill="#DDF0A7"/>
    </symbol>

    <symbol width="72" height="153" viewBox="0 0 72 153" id="string_2-icon">
    <path d="M53.1769 5.62854C33.2387 5.13922 31.7049 25.3238 47.9627 74.5615C53.1769 90.4039 48.7598 99.8234 37.2264 97.3768C29.6804 95.7865 22.7479 83.7374 16.2448 60.8615C10.662 41.1051 4.64972 35.5996 -5.10488 41.1045C-15.2276 46.8541 -16.0865 58.4148 -8.11102 83.065C-6.88402 86.7956 -5.35048 91.6272 -4.67563 93.8292C5.44726 126.063 34.1589 149.307 65.0788 150.346C80.1099 150.835 64.2817 153.955 49.4351 151.631C21.7049 147.227 -5.47298 121.171 -14.8595 89.7932C-27.0681 48.8731 -23.3871 36.1507 0.723339 36.0895C14.1589 36.0284 15.57 37.6181 24.8338 63.6741C35.8154 94.5015 43.8518 104.105 42.4412 84.6543C42.0731 80.0058 27.1037 41.5327 27.1037 25.8131C27.1037 8.01399 41.0297 -3.24045 57.1033 1.59162C63.8518 3.67124 61.705 5.8732 53.1769 5.62854Z" fill="#DDF0A7"/>
    </symbol>

    <symbol  width="236" height="234" viewBox="0 0 236 234" id="string_figure-icon">
    <path fill-rule="evenodd" clip-rule="evenodd" d="M131.127 232.808C161.784 231.973 195.754 234.167 217.21 212.322C238.548 190.596 236.304 156.894 235.541 126.498C234.803 97.1684 231.789 67.4498 213.003 44.8677C192.44 20.148 163.263 -1.23373 131.127 0.981637C100.084 3.12174 82.2037 33.8521 59.8429 55.4266C36.8314 77.6287 4.88598 94.803 1.03842 126.498C-3.08349 160.451 13.6804 195.46 40.211 217.141C64.9374 237.348 99.1676 233.678 131.127 232.808Z" fill="#1F3847"/>
    </symbol>


    <symbol  width="92" height="18" viewBox="0 0 92 18" id="logoipsum-icon">
    <path d="M0.51001 1.25998H3.72001V14.26H0.51001V1.25998ZM5.00001 9.36999C5.00001 6.14999 7.00001 4.21998 10 4.21998C13 4.21998 15 6.14999 15 9.36999C15 12.59 13.07 14.54 10 14.54C6.93001 14.54 5.00001 12.66 5.00001 9.36999ZM11.82 9.36999C11.82 7.59999 11.13 6.55998 10.03 6.55998C8.93001 6.55998 8.25001 7.55999 8.25001 9.36999C8.25001 11.18 8.93001 12.17 10.03 12.17C11.13 12.17 11.84 11.18 11.84 9.37998L11.82 9.36999ZM16.28 14.93H19.38C19.5211 15.2637 19.7676 15.5422 20.0818 15.7227C20.396 15.9033 20.7606 15.9761 21.12 15.93C22.35 15.93 22.99 15.27 22.99 14.29V12.49H23C22.7351 13.0505 22.3067 13.5176 21.7713 13.83C21.2358 14.1424 20.6183 14.2853 20 14.24C17.65 14.24 16.09 12.45 16.09 9.36999C16.09 6.28999 17.58 4.36998 20.09 4.36998C20.7241 4.33608 21.3532 4.49959 21.8904 4.83809C22.4277 5.17659 22.8468 5.67339 23.09 6.25998H23V4.44998H26.18V14.19C26.18 16.54 24.1 18.01 21.04 18.01C18.26 18 16.48 16.73 16.3 14.94L16.28 14.93ZM23 9.36999C23 7.79999 22.28 6.80998 21.14 6.80998C20 6.80998 19.3 7.80999 19.3 9.36999C19.3 10.93 19.99 11.85 21.14 11.85C22.29 11.85 23 11 23 9.36999ZM27.45 9.36999C27.45 6.14999 29.45 4.21998 32.45 4.21998C35.45 4.21998 37.45 6.14999 37.45 9.36999C37.45 12.59 35.51 14.54 32.45 14.54C29.39 14.54 27.47 12.66 27.47 9.36999H27.45ZM34.27 9.36999C34.27 7.59999 33.57 6.55998 32.48 6.55998C31.39 6.55998 30.7 7.55999 30.7 9.36999C30.7 11.18 31.38 12.17 32.48 12.17C33.58 12.17 34.29 11.18 34.29 9.37998L34.27 9.36999ZM38.75 2.07998C38.736 1.75298 38.8202 1.42929 38.9917 1.15059C39.1632 0.871785 39.4142 0.650784 39.7124 0.515884C40.0106 0.380884 40.3423 0.338285 40.6649 0.393485C40.9875 0.448585 41.2862 0.598985 41.5226 0.825285C41.759 1.05168 41.9223 1.34348 41.9915 1.66338C42.0606 1.98328 42.0325 2.31658 41.9107 2.62028C41.7889 2.92408 41.579 3.18448 41.308 3.36798C41.037 3.55148 40.7173 3.64968 40.39 3.64998C40.1809 3.65528 39.9727 3.61898 39.7777 3.54328C39.5827 3.46748 39.4046 3.35368 39.2539 3.20858C39.1032 3.06348 38.9828 2.88988 38.8998 2.69778C38.8167 2.50578 38.7726 2.29918 38.77 2.08998L38.75 2.07998ZM38.75 4.43998H42V14.3H38.8L38.75 4.43998ZM53.69 9.36999C53.69 12.58 52.25 14.44 49.8 14.44C49.1728 14.4787 48.5488 14.3239 48.0123 13.9967C47.4758 13.6694 47.0527 13.1854 46.8 12.61H46.74V17.47H43.53V4.46999H46.72V6.22998H46.78C47.024 5.64328 47.443 5.14598 47.9798 4.80598C48.5167 4.46598 49.1453 4.29978 49.78 4.32998C52.3 4.30998 53.75 6.15998 53.75 9.37998L53.69 9.36999ZM50.42 9.36999C50.42 7.80999 49.69 6.79998 48.56 6.79998C47.43 6.79998 46.72 7.79999 46.71 9.36999C46.7 10.94 47.43 11.93 48.56 11.93C49.69 11.93 50.48 11 50.48 9.37998L50.42 9.36999ZM59.17 4.20998C61.86 4.20998 63.53 5.47999 63.55 7.51999H60.62C60.62 6.80999 60.03 6.36999 59.15 6.36999C58.27 6.36999 57.85 6.70998 57.85 7.21998C57.85 7.72998 58.22 7.88999 58.96 8.03999L61.02 8.45998C63.02 8.87998 63.82 9.67999 63.82 11.17C63.82 13.17 61.97 14.53 59.22 14.53C56.47 14.53 54.68 13.21 54.55 11.2H57.66C57.75 11.93 58.33 12.36 59.27 12.36C60.21 12.36 60.65 12.06 60.65 11.53C60.65 11 60.35 10.91 59.58 10.75L57.72 10.36C55.79 9.94999 54.78 8.93999 54.78 7.42999C54.84 5.46999 56.52 4.21998 59.23 4.21998L59.17 4.20998ZM74.57 14.29H71.46V12.44H71.4C71.226 13.0571 70.847 13.5964 70.325 13.969C69.803 14.3417 69.17 14.5254 68.53 14.49C68.047 14.5057 67.565 14.4191 67.118 14.2357C66.671 14.0524 66.267 13.7765 65.934 13.4262C65.6 13.0758 65.345 12.6589 65.184 12.2029C65.023 11.7469 64.96 11.2619 65 10.78V4.44998H68.21V10.09C68.21 11.25 68.82 11.88 69.82 11.88C70.055 11.8782 70.286 11.8261 70.499 11.7273C70.712 11.6284 70.901 11.485 71.053 11.3068C71.206 11.1286 71.319 10.9197 71.384 10.6943C71.448 10.4688 71.464 10.2321 71.43 9.99998V4.44998H74.63L74.57 14.29ZM76.12 4.43998H79.24V6.33998H79.31C79.482 5.73129 79.852 5.19698 80.36 4.82058C80.869 4.44428 81.488 4.24708 82.12 4.25998C82.755 4.20478 83.388 4.38839 83.894 4.77489C84.401 5.16139 84.745 5.72308 84.86 6.34999H85C85.2 5.71969 85.602 5.17309 86.145 4.79519C86.687 4.41719 87.34 4.22908 88 4.25998C88.439 4.24328 88.877 4.31948 89.284 4.48358C89.692 4.64758 90.06 4.89588 90.365 5.21218C90.67 5.52838 90.904 5.90549 91.053 6.31869C91.203 6.73189 91.263 7.17189 91.23 7.60999V14.3H88V8.42999C88 7.42999 87.53 6.86999 86.62 6.86999C86.418 6.86669 86.218 6.90708 86.033 6.98829C85.848 7.06958 85.684 7.18989 85.55 7.34089C85.416 7.49199 85.316 7.67008 85.257 7.86329C85.199 8.05649 85.183 8.25998 85.21 8.45998V14.3H82.15V8.39998C82.15 7.39998 81.66 6.86999 80.78 6.86999C80.576 6.86839 80.374 6.91039 80.188 6.99319C80.001 7.07609 79.835 7.19778 79.699 7.35028C79.564 7.50278 79.463 7.68249 79.403 7.87729C79.342 8.07219 79.324 8.27768 79.35 8.47998V14.3H76.14L76.12 4.43998Z" fill="white"/>
    </symbol>

    <symbol  width="5" height="13" viewBox="0 0 5 13" id="l_letter-icon">
    <path d="M2.83002 12.2047C2.23522 12.237 1.64692 12.0679 1.16002 11.7247C0.956621 11.5739 0.792923 11.3758 0.683123 11.1476C0.573323 10.9193 0.52082 10.6678 0.53002 10.4147V1.14473C0.52522 1.10553 0.529319 1.06563 0.542219 1.02823C0.555019 0.990827 0.576219 0.956926 0.604219 0.928926C0.632219 0.900926 0.66612 0.879727 0.70352 0.866927C0.74092 0.854027 0.780821 0.849927 0.820021 0.854727H2.50002C2.69002 0.854727 2.78002 0.954727 2.78002 1.14473V9.69473C2.78002 10.0747 2.95002 10.2647 3.30002 10.2647C3.44842 10.2708 3.59682 10.254 3.74002 10.2147C3.94002 10.2147 4.05002 10.2747 4.06002 10.4547L4.21002 11.7047C4.21722 11.7412 4.21652 11.7787 4.20802 11.8149C4.19952 11.851 4.18332 11.885 4.16052 11.9143C4.13782 11.9437 4.10902 11.9679 4.07622 11.9852C4.04332 12.0025 4.00712 12.0126 3.97002 12.0147C3.60202 12.1363 3.21752 12.2004 2.83002 12.2047Z" fill="white"/>
    </symbol>

    <symbol  width="9" height="9" viewBox="0 0 9 9" id="first_o_letter-icon">
    <path d="M7.28003 7.13468C6.43593 7.83218 5.37503 8.21368 4.28003 8.21368C3.18503 8.21368 2.12423 7.83218 1.28003 7.13468C0.538125 6.38568 0.121826 5.37398 0.121826 4.31968C0.121826 3.26538 0.538125 2.25368 1.28003 1.50468C2.12583 0.810779 3.18603 0.43158 4.28003 0.43158C5.37403 0.43158 6.43423 0.810779 7.28003 1.50468C8.00493 2.26058 8.40963 3.26738 8.40963 4.31468C8.40963 5.36198 8.00493 6.36878 7.28003 7.12468V7.13468ZM2.86003 5.81468C3.25183 6.16958 3.76143 6.36608 4.29003 6.36608C4.81863 6.36608 5.32833 6.16958 5.72003 5.81468C6.07463 5.40708 6.26982 4.88498 6.26982 4.34468C6.26982 3.80448 6.07463 3.28238 5.72003 2.87468C5.32833 2.51988 4.81863 2.32328 4.29003 2.32328C3.76143 2.32328 3.25183 2.51988 2.86003 2.87468C2.50553 3.28238 2.31023 3.80448 2.31023 4.34468C2.31023 4.88498 2.50553 5.40708 2.86003 5.81468Z" fill="white"/>
    </symbol>

    <symbol width="9" height="12" viewBox="0 0 9 12" id="g_letter-icon">
    <path d="M8.66 0.684815C8.85 0.684815 8.94 0.784816 8.94 0.974816V8.14482C8.9575 8.62882 8.8669 9.11052 8.6749 9.55502C8.4829 9.99962 8.1943 10.3958 7.83 10.7148C7.0214 11.4043 5.9816 11.7616 4.92 11.7148C3.9612 11.7485 3.0151 11.4867 2.21 10.9648C1.8662 10.7391 1.5725 10.445 1.3472 10.101C1.1218 9.75692 0.969602 9.37022 0.900002 8.96482C0.900002 8.76482 0.899998 8.67482 1.17 8.67482H2.85C2.9213 8.67722 2.9905 8.70032 3.049 8.74112C3.1076 8.78192 3.1531 8.83872 3.18 8.90482C3.289 9.20852 3.5062 9.46142 3.79 9.61482C4.1359 9.79332 4.5209 9.88272 4.91 9.87482C5.1448 9.88772 5.3798 9.85362 5.6013 9.77462C5.8228 9.69571 6.0263 9.57332 6.2 9.41482C6.3587 9.24902 6.4821 9.05272 6.5629 8.83792C6.6437 8.62312 6.6801 8.39412 6.67 8.16482V7.53482C6.0685 7.97722 5.3364 8.20602 4.59 8.18482C4.0676 8.20382 3.5468 8.11712 3.0587 7.92982C2.5707 7.74242 2.1256 7.45852 1.75 7.09482C1.0291 6.34902 0.626099 5.35222 0.626099 4.31482C0.626099 3.27752 1.0291 2.28072 1.75 1.53482C2.1274 1.17442 2.5731 0.893217 3.0608 0.707717C3.5486 0.522217 4.0685 0.436216 4.59 0.454816C5.358 0.434516 6.1098 0.678116 6.72 1.14482V0.984816C6.7154 0.946516 6.7194 0.907616 6.7317 0.871016C6.744 0.834516 6.7643 0.801116 6.7911 0.773316C6.8179 0.745516 6.8506 0.724117 6.8867 0.710517C6.9229 0.696917 6.9616 0.691615 7 0.694815L8.66 0.684815ZM4.78 6.40482C5.0376 6.41282 5.2939 6.36412 5.5306 6.26212C5.7673 6.16022 5.9788 6.00752 6.15 5.81482C6.4825 5.38552 6.6629 4.85782 6.6629 4.31482C6.6629 3.77182 6.4825 3.24422 6.15 2.81482C5.9794 2.62482 5.7692 2.47432 5.5343 2.37412C5.2993 2.27392 5.0453 2.22642 4.79 2.23482C4.5294 2.22662 4.2702 2.27512 4.0302 2.37702C3.7902 2.47892 3.5752 2.63172 3.4 2.82482C3.0317 3.23552 2.838 3.77362 2.86 4.32482C2.842 4.87062 3.0314 5.40302 3.39 5.81482C3.5656 6.00742 3.7807 6.15992 4.0206 6.26172C4.2605 6.36352 4.5195 6.41232 4.78 6.40482Z" fill="white"/>
    </symbol>

    <symbol width="9" height="9" viewBox="0 0 9 9" id="second_o_letter-icon">
    <path d="M7.57001 7.13459C6.72422 7.82849 5.66401 8.20769 4.57001 8.20769C3.47602 8.20769 2.41581 7.82849 1.57001 7.13459C0.844515 6.37699 0.439514 5.36859 0.439514 4.31959C0.439514 3.27069 0.844515 2.26219 1.57001 1.50459C2.41662 0.812487 3.47651 0.434387 4.57001 0.434387C5.66352 0.434387 6.72341 0.812487 7.57001 1.50459C8.29492 2.26049 8.69962 3.26729 8.69962 4.31459C8.69962 5.36189 8.29492 6.36869 7.57001 7.12459V7.13459ZM3.14001 5.81459C3.33171 5.99699 3.55772 6.13949 3.80492 6.23389C4.05212 6.32829 4.31552 6.37279 4.58002 6.36459C4.84282 6.37139 5.10442 6.32639 5.34982 6.23199C5.59522 6.13759 5.81952 5.99579 6.01002 5.81459C6.35882 5.40419 6.55032 4.88319 6.55032 4.34459C6.55032 3.80599 6.35882 3.28499 6.01002 2.87459C5.81952 2.69349 5.59522 2.55159 5.34982 2.45729C5.10442 2.36289 4.84282 2.31779 4.58002 2.32459C4.31552 2.31649 4.05212 2.36089 3.80492 2.45529C3.55772 2.54969 3.33171 2.69229 3.14001 2.87459C2.79131 3.28499 2.59982 3.80599 2.59982 4.34459C2.59982 4.88319 2.79131 5.40419 3.14001 5.81459Z" fill="white"/>
    </symbol>

    <symbol width="4" height="13" viewBox="0 0 4 13" id="i_letter-icon">
    <path d="M2.31001 2.98473C2.04571 3.21613 1.70631 3.34363 1.35501 3.34363C1.00371 3.34363 0.664409 3.21613 0.400009 2.98473C0.280209 2.87163 0.184708 2.73523 0.119408 2.58393C0.0542077 2.43263 0.0205078 2.26953 0.0205078 2.10473C0.0205078 1.93993 0.0542077 1.77693 0.119408 1.62553C0.184708 1.47423 0.280209 1.33783 0.400009 1.22473C0.667109 0.999128 1.00541 0.875427 1.35501 0.875427C1.70461 0.875427 2.04291 0.999128 2.31001 1.22473C2.42991 1.33783 2.52541 1.47423 2.59061 1.62553C2.65591 1.77693 2.68951 1.93993 2.68951 2.10473C2.68951 2.26953 2.65591 2.43263 2.59061 2.58393C2.52541 2.73523 2.42991 2.87163 2.31001 2.98473ZM2.52 12.2047C1.9256 12.2339 1.33831 12.0651 0.850006 11.7247C0.649706 11.5717 0.488804 11.3729 0.381004 11.145C0.273104 10.9171 0.221311 10.6667 0.230011 10.4147V4.97473C0.225211 4.93553 0.22931 4.89563 0.24221 4.85823C0.25501 4.82083 0.276207 4.78693 0.304207 4.75893C0.332207 4.73093 0.366111 4.70973 0.403511 4.69693C0.440911 4.68403 0.480804 4.67993 0.520004 4.68473H2.2C2.39 4.68473 2.48001 4.78473 2.48001 4.97473V9.69473C2.48001 10.0747 2.65001 10.2647 2.99001 10.2647C3.14171 10.2702 3.29331 10.2533 3.44001 10.2147C3.64001 10.2147 3.75001 10.2747 3.76001 10.4547L3.91001 11.7047C3.91721 11.7412 3.9165 11.7787 3.908 11.8149C3.8995 11.851 3.8833 11.885 3.8605 11.9143C3.8378 11.9437 3.80901 11.9679 3.77621 11.9852C3.74331 12.0025 3.70711 12.0126 3.67001 12.0147C3.29881 12.137 2.9109 12.2011 2.52 12.2047Z" fill="white"/>
    </symbol>

    <symbol  width="11" height="12" viewBox="0 0 11 12" id="p_letter-icon">
    <path d="M6.09001 0.444709C6.61481 0.424009 7.13832 0.508909 7.62962 0.694409C8.12092 0.880009 8.57001 1.16231 8.95001 1.52471C9.65721 2.28371 10.0504 3.28241 10.0504 4.31971C10.0504 5.35701 9.65721 6.35581 8.95001 7.11471C8.57181 7.48041 8.12331 7.76551 7.63171 7.95281C7.14011 8.14021 6.61571 8.22591 6.09001 8.20471C5.34121 8.22141 4.60732 7.99321 4.00002 7.55471V11.1647C4.00002 11.3547 3.90001 11.4447 3.71001 11.4447H2.03001C1.99171 11.4519 1.95222 11.4496 1.91492 11.4381C1.87772 11.4265 1.84382 11.4061 1.81622 11.3785C1.78872 11.3509 1.76821 11.3171 1.75671 11.2798C1.74511 11.2426 1.74291 11.2031 1.75001 11.1647V2.96471C1.76181 2.88451 1.75462 2.80271 1.72922 2.72571C1.70372 2.64881 1.66052 2.57881 1.60322 2.52151C1.54592 2.46421 1.47602 2.42111 1.39902 2.39561C1.32212 2.37011 1.24022 2.36301 1.16002 2.37471H0.830017C0.610017 2.37471 0.500015 2.29471 0.500015 2.13471V0.954709C0.494815 0.881709 0.514817 0.809108 0.556717 0.749108C0.598517 0.689008 0.659718 0.645109 0.730018 0.624709C1.07592 0.499009 1.44201 0.438009 1.81001 0.444709C2.17701 0.412209 2.54531 0.490108 2.86781 0.668208C3.19021 0.846408 3.45222 1.11681 3.62002 1.44471C3.94212 1.11891 4.32731 0.862209 4.75201 0.690209C5.17671 0.518309 5.63201 0.434709 6.09001 0.444709ZM4.53001 5.81471C4.70831 6.00111 4.92251 6.14941 5.15971 6.25071C5.39691 6.35201 5.65212 6.40421 5.91002 6.40421C6.16792 6.40421 6.42322 6.35201 6.66032 6.25071C6.89752 6.14941 7.11172 6.00111 7.29002 5.81471C7.66562 5.39581 7.86291 4.84691 7.84001 4.28471C7.86621 3.72211 7.66842 3.17191 7.29002 2.75471C7.11172 2.56841 6.89752 2.42011 6.66032 2.31881C6.42322 2.21741 6.16792 2.16521 5.91002 2.16521C5.65212 2.16521 5.39691 2.21741 5.15971 2.31881C4.92251 2.42011 4.70831 2.56841 4.53001 2.75471C4.16621 3.17931 3.97681 3.72601 4.00002 4.28471C3.97972 4.84301 4.16881 5.38871 4.53001 5.81471Z" fill="white"/>
    </symbol>

    <symbol width="8" height="9" viewBox="0 0 8 9" id="s_letter-icon">
    <path d="M3.76997 8.20471C2.87227 8.24161 1.98217 8.02691 1.19997 7.58471C0.886174 7.39571 0.618976 7.13841 0.418076 6.83201C0.217276 6.52561 0.088078 6.17791 0.039978 5.81471C0.039978 5.61471 0.109979 5.51471 0.329979 5.51471H1.79998C1.86988 5.51751 1.93778 5.53941 1.99598 5.57831C2.05418 5.61711 2.10057 5.67121 2.12997 5.73471C2.33997 6.27471 2.88997 6.54471 3.76997 6.54471C4.07697 6.55881 4.38258 6.49691 4.65998 6.36471C4.75578 6.32151 4.83787 6.25311 4.89777 6.16681C4.95767 6.08051 4.99298 5.97951 4.99998 5.87471C4.99998 5.61471 4.83997 5.43471 4.51997 5.31471C4.14047 5.18841 3.74808 5.10451 3.34998 5.06471C2.87848 5.01131 2.41087 4.92781 1.94997 4.81471C1.50177 4.71331 1.09428 4.47991 0.779976 4.14471C0.594876 3.91691 0.458677 3.65341 0.379677 3.37071C0.300777 3.08801 0.280875 2.79201 0.321175 2.50131C0.361575 2.21051 0.461274 1.93111 0.614174 1.68061C0.767074 1.43001 0.969876 1.21361 1.20998 1.04471C1.93078 0.585609 2.77647 0.361908 3.62997 0.404708C4.45637 0.376808 5.27397 0.581208 5.98997 0.994708C6.27857 1.15821 6.52698 1.38391 6.71728 1.65551C6.90758 1.92711 7.03487 2.23771 7.08997 2.56471C7.08997 2.76471 6.99998 2.86471 6.81998 2.86471H5.33997C5.27767 2.86841 5.21568 2.85321 5.16218 2.82111C5.10868 2.78901 5.06608 2.74141 5.03998 2.68471C4.94108 2.44791 4.75487 2.25811 4.51997 2.15471C4.25497 2.01611 3.95898 1.94721 3.65998 1.95471C3.36688 1.93881 3.07447 1.99731 2.80997 2.12471C2.71677 2.16071 2.63658 2.22371 2.57948 2.30571C2.52248 2.38771 2.49128 2.48491 2.48997 2.58471C2.49638 2.72151 2.54647 2.85261 2.63287 2.95881C2.71927 3.06501 2.83738 3.14061 2.96998 3.17471C3.35398 3.31951 3.75328 3.42011 4.15998 3.47471C4.62768 3.53631 5.09168 3.62311 5.54998 3.73471C5.99818 3.83621 6.40568 4.06951 6.71998 4.40471C6.88818 4.58941 7.01797 4.80551 7.10207 5.04071C7.18617 5.27581 7.22288 5.52531 7.20998 5.77471C7.21858 6.12041 7.13748 6.46241 6.97448 6.76741C6.81148 7.07231 6.57218 7.32981 6.27998 7.51471C5.53288 7.99441 4.65737 8.23501 3.76997 8.20471Z" fill="white"/>
    </symbol>

    <symbol width="10" height="9" viewBox="0 0 10 9" id="u_letter-icon">
    <path d="M9.77997 7.70469C9.78597 7.74019 9.78397 7.77649 9.77597 7.81139C9.76697 7.84639 9.75197 7.87919 9.72997 7.90809C9.70897 7.93699 9.68197 7.96129 9.65097 7.97959C9.61997 7.99789 9.58597 8.00979 9.54997 8.01469C9.18497 8.13389 8.80397 8.19799 8.41997 8.20469C8.03997 8.24409 7.65597 8.18469 7.30597 8.03229C6.95497 7.87989 6.64997 7.63959 6.41997 7.33469C5.71397 7.94199 4.79997 8.25359 3.86997 8.20469C3.43797 8.22459 3.00697 8.15389 2.60397 7.99719C2.20097 7.84049 1.83497 7.60119 1.52997 7.29469C1.22697 6.97359 0.992173 6.59459 0.839173 6.18049C0.686273 5.76639 0.61857 5.32569 0.63997 4.88469V0.974693C0.63997 0.784693 0.729969 0.684692 0.919969 0.684692H2.59997C2.78997 0.684692 2.87997 0.784693 2.87997 0.974693V4.58469C2.86197 5.03449 3.01497 5.47429 3.30997 5.81469C3.45697 5.97069 3.63597 6.09329 3.83397 6.17439C4.03197 6.25549 4.24597 6.29309 4.45997 6.28469C4.67897 6.29429 4.89797 6.26039 5.10397 6.18479C5.30997 6.10929 5.49897 5.99369 5.65997 5.84469C5.81197 5.68769 5.93097 5.50109 6.00797 5.29639C6.08597 5.09169 6.11997 4.87329 6.10997 4.65469V0.974693C6.10997 0.784693 6.19997 0.684692 6.38997 0.684692H8.08997C8.27997 0.684692 8.36997 0.784693 8.36997 0.974693V5.68469C8.36997 6.07469 8.53997 6.26469 8.86997 6.26469C9.02497 6.27069 9.17997 6.25389 9.32997 6.21469C9.36797 6.20409 9.40797 6.20219 9.44597 6.20919C9.48497 6.21609 9.52097 6.23169 9.55297 6.25479C9.58497 6.27789 9.61097 6.30789 9.62997 6.34249C9.64797 6.37709 9.65797 6.41549 9.65997 6.45469L9.77997 7.70469Z" fill="white"/>
    </symbol>

    <symbol width="16" height="9" viewBox="0 0 16 9" id="m_letter-icon">
    <path d="M15.67 7.70469C15.679 7.74049 15.68 7.77789 15.673 7.81409C15.665 7.85019 15.65 7.88439 15.628 7.91399C15.606 7.94359 15.578 7.96799 15.545 7.98539C15.513 8.00289 15.477 8.01289 15.44 8.01469C15.068 8.13559 14.681 8.19969 14.29 8.20469C13.695 8.23539 13.108 8.06649 12.62 7.72469C12.409 7.57829 12.238 7.38219 12.121 7.15369C12.004 6.92519 11.945 6.67129 11.95 6.41469V4.06469C11.971 3.61629 11.821 3.17659 11.53 2.83469C11.39 2.67839 11.216 2.55519 11.023 2.47389C10.829 2.39269 10.62 2.35539 10.41 2.36469C10.221 2.35759 10.033 2.39349 9.85901 2.46969C9.68601 2.54589 9.53301 2.66049 9.41001 2.80469C9.14601 3.13979 9.011 3.55859 9.03 3.98469V7.67469C9.03 7.86469 8.94001 7.96469 8.75001 7.96469H7.06C7.021 7.96959 6.98101 7.96539 6.94401 7.95259C6.90601 7.93969 6.87201 7.91849 6.84401 7.89049C6.81601 7.86259 6.795 7.82859 6.782 7.79119C6.769 7.75379 6.765 7.71399 6.77 7.67469V4.06469C6.792 3.62119 6.653 3.18459 6.38 2.83469C6.258 2.68769 6.105 2.56939 5.932 2.48819C5.76 2.40699 5.571 2.36479 5.38 2.36469C5.176 2.35649 4.973 2.39139 4.783 2.46729C4.593 2.54309 4.422 2.65809 4.28 2.80469C3.994 3.12909 3.84701 3.55289 3.87001 3.98469V7.67469C3.87501 7.71399 3.87101 7.75379 3.85801 7.79119C3.84501 7.82859 3.824 7.86259 3.796 7.89049C3.768 7.91849 3.734 7.93969 3.697 7.95259C3.659 7.96539 3.61901 7.96959 3.58001 7.96469H1.95C1.76 7.96469 1.67 7.86469 1.67 7.67469V2.96469C1.682 2.88449 1.67501 2.80269 1.64901 2.72569C1.62401 2.64879 1.58101 2.57879 1.52301 2.52149C1.46601 2.46419 1.39601 2.42109 1.31901 2.39559C1.24201 2.37009 1.16001 2.36299 1.08001 2.37469H0.750005C0.530005 2.37469 0.420004 2.29469 0.420004 2.13469V0.954687C0.415004 0.881687 0.435003 0.809086 0.477003 0.749086C0.519003 0.688986 0.580007 0.645087 0.650007 0.624687C0.996007 0.498987 1.36201 0.437987 1.73001 0.444687C2.08301 0.414587 2.438 0.484987 2.753 0.647787C3.068 0.810587 3.33001 1.05909 3.51001 1.36469C3.84701 1.04499 4.247 0.798187 4.684 0.639887C5.121 0.481587 5.58601 0.415187 6.05001 0.444687C6.50101 0.422687 6.95 0.507187 7.362 0.691387C7.774 0.875587 8.136 1.15419 8.42 1.50469C8.751 1.14499 9.15801 0.863387 9.61101 0.679987C10.064 0.496687 10.552 0.416387 11.04 0.444687C11.476 0.424287 11.912 0.494587 12.32 0.651287C12.728 0.807887 13.099 1.04739 13.41 1.35469C13.714 1.67519 13.949 2.05409 14.102 2.46839C14.255 2.88259 14.323 3.32369 14.3 3.76469V5.69469C14.3 6.07469 14.47 6.26469 14.79 6.26469C14.945 6.27189 15.1 6.25509 15.25 6.21469C15.457 6.21469 15.567 6.29469 15.58 6.45469L15.67 7.70469Z" fill="white"/>
    </symbol>

    <symbol width="5" height="5" viewBox="0 0 5 5" id="point_letter-icon">
    <path d="M2.52001 4.74C3.73501 4.74 4.72001 3.755 4.72001 2.54C4.72001 1.325 3.73501 0.339966 2.52001 0.339966C1.30501 0.339966 0.320007 1.325 0.320007 2.54C0.320007 3.755 1.30501 4.74 2.52001 4.74Z" fill="white"/>
    </symbol>


    <symbol width="4" height="15" viewBox="0 0 4 15" id="big_l_letter-icon">
    <path d="M0.320007 0.25H3.32001V14.7H0.320007V0.25Z" fill="white"/>
    </symbol>

    <symbol width="11" height="11" viewBox="0 0 11 11" id="big_o_letter-icon">
    <path d="M-1.69163e-05 5.75001C-1.69163e-05 4.71041 0.308685 3.69421 0.886885 2.83021C1.46508 1.96621 2.28678 1.29331 3.24788 0.89681C4.20898 0.50041 5.26608 0.39821 6.28528 0.60321C7.30448 0.80821 8.23988 1.31121 8.97288 2.04841C9.70588 2.78571 10.2036 3.72391 10.4028 4.74431C10.6019 5.76471 10.4937 6.82121 10.0917 7.78001C9.68968 8.73871 9.01218 9.55661 8.14488 10.1298C7.27758 10.7031 6.25958 11.0059 5.21998 11C4.53048 11.0054 3.84678 10.8731 3.20908 10.6107C2.57138 10.3484 1.99238 9.96141 1.50618 9.47251C1.01998 8.98351 0.636384 8.40231 0.377684 7.76311C0.119084 7.12391 -0.00931692 6.43951 -1.69163e-05 5.75001ZM7.51998 5.75001C7.50818 5.30181 7.36448 4.86701 7.10688 4.50011C6.84928 4.13311 6.48928 3.85021 6.07168 3.68681C5.65418 3.52341 5.19778 3.48671 4.75958 3.58141C4.32128 3.67601 3.92068 3.89771 3.60778 4.21891C3.29488 4.54001 3.08358 4.94621 3.00038 5.38681C2.91718 5.82741 2.96568 6.28271 3.13988 6.69581C3.31408 7.10891 3.60618 7.46161 3.97978 7.70951C4.35328 7.95751 4.79158 8.08981 5.23998 8.09001C5.54529 8.09601 5.84848 8.03891 6.13068 7.92231C6.41288 7.80581 6.66798 7.63231 6.88008 7.41271C7.09218 7.19311 7.25668 6.93201 7.36338 6.64601C7.47008 6.35991 7.51658 6.05491 7.49998 5.75001H7.51998Z" fill="white"/>
    </symbol>

    <symbol width="12" height="15" viewBox="0 0 12 15" id="big_g_letter-icon">
    <path d="M11.31 0.799986V10.21C11.31 13.53 8.71003 14.94 6.08003 14.94C5.15233 15.0161 4.22183 14.8318 3.39333 14.4078C2.56473 13.9838 1.87093 13.3369 1.39003 12.54L3.92003 11.08C4.12503 11.4934 4.45113 11.8344 4.85493 12.0577C5.25873 12.281 5.72093 12.376 6.18003 12.33C6.47253 12.366 6.76933 12.337 7.04923 12.245C7.32923 12.1529 7.58533 12.0002 7.79933 11.7976C8.01343 11.595 8.18003 11.3477 8.28733 11.0732C8.39463 10.7988 8.43993 10.504 8.42003 10.21V9.29998C8.07093 9.72328 7.62793 10.0593 7.12633 10.2815C6.62463 10.5037 6.07813 10.6059 5.53003 10.58C4.20393 10.58 2.93223 10.0532 1.99453 9.11549C1.05683 8.17789 0.530029 6.90609 0.530029 5.57999C0.530029 4.25389 1.05683 2.98219 1.99453 2.04449C2.93223 1.10679 4.20393 0.579986 5.53003 0.579986C6.07813 0.554086 6.62463 0.656286 7.12633 0.878486C7.62793 1.10069 8.07093 1.43669 8.42003 1.85999V0.859985L11.31 0.799986ZM8.42003 5.54998C8.43993 5.07158 8.31633 4.59809 8.06503 4.19049C7.81373 3.78289 7.44633 3.45978 7.00983 3.26268C6.57343 3.06558 6.08813 3.00359 5.61613 3.08459C5.14423 3.16559 4.70723 3.38589 4.36153 3.71719C4.01583 4.04849 3.77713 4.47569 3.67613 4.94379C3.57513 5.41189 3.61643 5.89939 3.79473 6.34379C3.97313 6.78819 4.28033 7.16909 4.67683 7.43749C5.07343 7.70589 5.54123 7.84959 6.02003 7.84999C6.33253 7.87249 6.64623 7.82919 6.94083 7.72299C7.23553 7.61669 7.50473 7.44979 7.73083 7.23299C7.95703 7.01629 8.13523 6.75449 8.25393 6.46459C8.37263 6.17469 8.42923 5.86308 8.42003 5.54998Z" fill="white"/>
    </symbol>

    <symbol width="5" height="15" viewBox="0 0 5 15" id="big_i_letter-icon">
    <path d="M0.869995 2.15C0.869995 1.798 0.974391 1.4538 1.16999 1.1611C1.36559 0.868358 1.6436 0.640218 1.9688 0.505488C2.2941 0.370768 2.65199 0.335517 2.99729 0.404197C3.34249 0.472877 3.65969 0.642407 3.90869 0.891347C4.15759 1.1403 4.32709 1.4575 4.39579 1.8027C4.46449 2.148 4.42919 2.5059 4.29449 2.8312C4.15979 3.1564 3.93159 3.4344 3.63889 3.63C3.34619 3.8256 3.00209 3.93 2.64999 3.93C2.17949 3.9248 1.72979 3.7356 1.39709 3.4029C1.06439 3.0702 0.875195 2.6205 0.869995 2.15ZM1.16 4.8H4.16V14.7H1.16V4.8Z" fill="white"/>
    </symbol>

    <symbol width="11" height="15" viewBox="0 0 11 15" id="big_p_letter-icon">
    <path d="M11 5.74999C11.0336 6.40839 10.9367 7.06699 10.7148 7.68779C10.493 8.30859 10.1505 8.87939 9.70718 9.36729C9.26378 9.85529 8.72838 10.2507 8.13158 10.5309C7.53488 10.8111 6.88858 10.9705 6.22998 11C5.67108 11.0372 5.11098 10.9477 4.59158 10.7382C4.07208 10.5286 3.60668 10.2045 3.22998 9.78999V14.68H0.22998V0.799988H3.22998V1.72999C3.60718 1.31669 4.07298 0.994087 4.59248 0.786287C5.11198 0.578387 5.67178 0.490787 6.22998 0.529987C6.88598 0.559487 7.52967 0.717987 8.12437 0.996287C8.71907 1.27459 9.25318 1.66739 9.69608 2.15209C10.1391 2.63679 10.4822 3.20399 10.7059 3.82139C10.9296 4.43869 11.0296 5.09399 11 5.74999ZM7.99998 5.74999C7.98818 5.28549 7.83948 4.83489 7.57268 4.45459C7.30588 4.07429 6.93268 3.78109 6.49998 3.61199C6.06728 3.44279 5.59427 3.40519 5.14017 3.50369C4.68617 3.60219 4.27138 3.83259 3.94768 4.16589C3.62398 4.49919 3.40588 4.92059 3.32078 5.37739C3.23558 5.83409 3.28708 6.30579 3.46888 6.73339C3.65068 7.16089 3.95458 7.52529 4.34258 7.78089C4.73058 8.03649 5.18538 8.17179 5.64998 8.16999C5.96818 8.18349 6.28567 8.12959 6.58157 8.01179C6.87757 7.89399 7.14528 7.71499 7.36718 7.48649C7.58908 7.25799 7.76008 6.98509 7.86918 6.68589C7.97828 6.38659 8.02278 6.06769 7.99998 5.74999Z" fill="white"/>
    </symbol>

    <symbol width="10" height="11" viewBox="0 0 10 11" id="big_s_letter-icon">
    <path d="M9.13 7.72999C9.13 10.01 7.13 10.98 5.01 10.98C4.1453 11.0578 3.2772 10.8745 2.5178 10.4538C1.7584 10.0331 1.1426 9.39429 0.75 8.61999L3.33 7.15999C3.4322 7.51679 3.6538 7.82769 3.9578 8.04069C4.2618 8.25369 4.6297 8.35579 5 8.32999C5.71 8.32999 6.07 8.10999 6.07 7.70999C6.07 6.61999 1.2 7.19999 1.2 3.76999C1.2 1.60999 3.02 0.529988 5.08 0.529988C5.863 0.494888 6.641 0.672588 7.3311 1.04409C8.0213 1.41559 8.598 1.96709 9 2.63999L6.42 3.99999C6.306 3.74199 6.1198 3.52259 5.8838 3.36819C5.6477 3.21379 5.372 3.13109 5.09 3.12999C4.57 3.12999 4.26 3.32999 4.26 3.67999C4.26 4.81999 9.13 4.06999 9.13 7.72999Z" fill="white"/>
    </symbol>

    <symbol width="10" height="11" viewBox="0 0 10 11" id="big_u_letter-icon">
    <path d="M9.99997 0.799988V10.7H6.99997V9.76999C6.65897 10.1817 6.22597 10.5074 5.73697 10.7211C5.24697 10.9348 4.71397 11.0303 4.17997 11C2.17997 11 0.469971 9.56999 0.469971 6.89999V0.799988H3.46997V6.44999C3.44597 6.68619 3.47397 6.92469 3.55197 7.14909C3.62997 7.37339 3.75497 7.57819 3.91897 7.74939C4.08397 7.92049 4.28397 8.05389 4.50497 8.14039C4.72597 8.22679 4.96297 8.26419 5.19997 8.24999C6.27997 8.24999 7.03997 7.60999 7.03997 6.24999V0.799988H9.99997Z" fill="white"/>
    </symbol>

    <symbol width="15" height="11" viewBox="0 0 15 11" id="big_m_letter-icon">
    <path d="M15 4.62002V10.7H12V4.88001C12 3.88001 11.53 3.26002 10.58 3.26002C9.63 3.26002 9.03 3.95002 9.03 5.12002V10.7H6.03V4.88001C6.03 3.88001 5.56 3.26002 4.61 3.26002C3.66 3.26002 3.06 3.95002 3.06 5.12002V10.7H0.0599976V0.800015H3.06V1.71001C3.371 1.30801 3.776 0.989615 4.241 0.783615C4.705 0.577615 5.214 0.490414 5.72 0.530014C6.227 0.503514 6.733 0.609515 7.187 0.837415C7.641 1.06532 8.028 1.40741 8.31 1.83001C8.64 1.38841 9.076 1.03761 9.578 0.810315C10.079 0.582915 10.631 0.486514 11.18 0.530014C13.52 0.530014 15 2.15002 15 4.62002Z" fill="white"/>
    </symbol>


    <symbol viewBox="0 0 122 23" id="wave_1-icon">
    <path d="M17.9427 12.0439C26.2644 17.8621 33.9457 16.3168 43.3647 6.77133C50.9549 -0.865036 56.5332 -1.41067 63.5746 4.77114C74.9141 14.6802 83.3273 16.3164 91.0088 10.0437C99.7878 2.86187 101.342 1.95242 105.092 1.95242C109.389 1.95242 111.767 3.13442 114.785 6.67987C122.833 16.1344 131.428 16.4981 141.762 7.58896C152.096 -1.32013 165.264 1.31641 156.211 10.4982C144.688 22.1346 126.49 25.2257 111.767 17.953L105.183 14.6797L99.422 17.589C88.8141 23.0435 68.0556 21.4979 58.2707 14.6797L55.8017 12.953L51.4122 16.0433C37.3293 25.9524 0.567749 23.2255 0.567749 12.3164C0.567749 7.77096 11.5413 7.58933 17.9427 12.0439Z" fill="#E2E8EB"/>
    </symbol>

    <symbol viewBox="0 0 122 21" id="wave_2-icon">
    <path d="M42.4502 5.22658C49.1259 0.135678 53.0581 -2.22872 66.2265 5.77108C78.572 13.2257 82.5957 13.0438 95.3983 4.40748C102.897 -0.683321 105.823 -0.592723 116.98 4.95288C129.874 11.4075 139.75 11.4075 143.774 4.95288C146.975 -0.138223 160.6 -0.501325 160.6 4.58928C160.6 14.9529 130.239 20.9529 113.871 13.7711L105.915 10.3166L101.525 13.0438C89.82 20.1347 72.5365 20.4075 59.0938 13.5893L54.3383 11.1357L47.1141 14.4075C29.6477 22.3166 9.34642 22.1357 1.75631 13.8629C-2.08446 9.59018 7.97471 7.95288 16.2049 11.4075C23.4292 14.4984 33.3055 12.2266 42.4502 5.22658Z" fill="#E2E8EB"/>
    </symbol>

    <symbol viewBox="0 0 117 27"  id="wave_3-icon">
    <path d="M115.821 7.68099C132.098 15.0446 137.768 14.8619 146.73 7.04369C158.709 -3.50171 171.238 0.225584 160.081 10.9528C148.285 22.4074 127.343 23.9528 108.962 14.6801L104.481 12.4074L98.7201 15.5892C87.1064 21.9528 71.6519 23.2256 59.1235 18.8619L54.0023 17.0437L49.2472 20.0437C36.1703 28.3165 15.686 29.1346 4.52944 21.8619C-5.16395 15.4983 3.98085 11.4074 15.3203 16.9528C21.1729 19.8619 25.471 20.3174 30.5006 18.5901C33.3355 17.5901 35.3471 16.4074 44.3089 9.86189C48.6069 6.77099 56.2885 7.04368 63.3299 10.4983C74.1209 15.9528 83.2656 14.5892 93.9649 5.95278C98.9032 2.13458 104.389 2.49919 115.821 7.68099Z" fill="#E2E8EB"/>
    </symbol>

    <symbol viewBox="0 0 100 100" fill="none" id="around-icon">
    <path d="M90.0486 34C90.0486 39.2598 85.773 44.1431 78.5824 47.7384C71.4188 51.3202 61.4908 53.5486 50.5 53.5486C39.5092 53.5486 29.5812 51.3202 22.4176 47.7384C15.227 44.1431 10.9514 39.2598 10.9514 34C10.9514 28.7402 15.227 23.8569 22.4176 20.2616C29.5812 16.6798 39.5092 14.4514 50.5 14.4514C61.4908 14.4514 71.4188 16.6798 78.5824 20.2616C85.773 23.8569 90.0486 28.7402 90.0486 34Z" stroke="#DDF0A7" stroke-width="0.902778"/>
    <path d="M90.0486 36.2222C90.0486 41.4819 85.773 46.3653 78.5824 49.9606C71.4188 53.5424 61.4908 55.7708 50.5 55.7708C39.5092 55.7708 29.5812 53.5424 22.4176 49.9606C15.227 46.3653 10.9514 41.4819 10.9514 36.2222C10.9514 30.9624 15.227 26.0791 22.4176 22.4838C29.5812 18.902 39.5092 16.6736 50.5 16.6736C61.4908 16.6736 71.4188 18.902 78.5824 22.4838C85.773 26.0791 90.0486 30.9624 90.0486 36.2222Z" stroke="#DDF0A7" stroke-width="0.902778"/>
    <path d="M90.0486 38.4445C90.0486 43.7042 85.773 48.5876 78.5824 52.1829C71.4188 55.7647 61.4908 57.993 50.5 57.993C39.5092 57.993 29.5812 55.7647 22.4176 52.1829C15.227 48.5876 10.9514 43.7042 10.9514 38.4445C10.9514 33.1847 15.227 28.3014 22.4176 24.7061C29.5812 21.1243 39.5092 18.8958 50.5 18.8958C61.4908 18.8958 71.4188 21.1243 78.5824 24.7061C85.773 28.3014 90.0486 33.1847 90.0486 38.4445Z" stroke="#DDF0A7" stroke-width="0.902778"/>
    <path d="M90.0486 40.6665C90.0486 45.9263 85.773 50.8096 78.5824 54.4049C71.4188 57.9867 61.4908 60.2151 50.5 60.2151C39.5092 60.2151 29.5812 57.9867 22.4176 54.4049C15.227 50.8096 10.9514 45.9263 10.9514 40.6665C10.9514 35.4068 15.227 30.5234 22.4176 26.9281C29.5812 23.3463 39.5092 21.1179 50.5 21.1179C61.4908 21.1179 71.4188 23.3463 78.5824 26.9281C85.773 30.5234 90.0486 35.4068 90.0486 40.6665Z" stroke="#DDF0A7" stroke-width="0.902778"/>
    <path d="M90.0486 42.8889C90.0486 48.1487 85.773 53.032 78.5824 56.6273C71.4188 60.2091 61.4908 62.4375 50.5 62.4375C39.5092 62.4375 29.5812 60.2091 22.4176 56.6273C15.227 53.032 10.9514 48.1487 10.9514 42.8889C10.9514 37.6292 15.227 32.7458 22.4176 29.1505C29.5812 25.5687 39.5092 23.3403 50.5 23.3403C61.4908 23.3403 71.4188 25.5687 78.5824 29.1505C85.773 32.7458 90.0486 37.6292 90.0486 42.8889Z" stroke="#DDF0A7" stroke-width="0.902778"/>
    <path d="M90.0486 45.1111C90.0486 50.3708 85.773 55.2542 78.5824 58.8495C71.4188 62.4313 61.4908 64.6597 50.5 64.6597C39.5092 64.6597 29.5812 62.4313 22.4176 58.8495C15.227 55.2542 10.9514 50.3708 10.9514 45.1111C10.9514 39.8513 15.227 34.968 22.4176 31.3727C29.5812 27.7909 39.5092 25.5625 50.5 25.5625C61.4908 25.5625 71.4188 27.7909 78.5824 31.3727C85.773 34.968 90.0486 39.8513 90.0486 45.1111Z" stroke="#DDF0A7" stroke-width="0.902778"/>
    <path d="M90.0486 47.3335C90.0486 52.5932 85.773 57.4766 78.5824 61.0719C71.4188 64.6537 61.4908 66.8821 50.5 66.8821C39.5092 66.8821 29.5812 64.6537 22.4176 61.0719C15.227 57.4766 10.9514 52.5932 10.9514 47.3335C10.9514 42.0737 15.227 37.1904 22.4176 33.5951C29.5812 30.0133 39.5092 27.7849 50.5 27.7849C61.4908 27.7849 71.4188 30.0133 78.5824 33.5951C85.773 37.1904 90.0486 42.0737 90.0486 47.3335Z" stroke="#DDF0A7" stroke-width="0.902778"/>
    <path d="M90.0486 49.5554C90.0486 54.8152 85.773 59.6985 78.5824 63.2938C71.4188 66.8756 61.4908 69.1041 50.5 69.1041C39.5092 69.1041 29.5812 66.8756 22.4176 63.2938C15.227 59.6985 10.9514 54.8152 10.9514 49.5554C10.9514 44.2957 15.227 39.4123 22.4176 35.817C29.5812 32.2352 39.5092 30.0068 50.5 30.0068C61.4908 30.0068 71.4188 32.2352 78.5824 35.817C85.773 39.4123 90.0486 44.2957 90.0486 49.5554Z" stroke="#DDF0A7" stroke-width="0.902778"/>
    <path d="M90.0486 51.7779C90.0486 57.0377 85.773 61.9209 78.5824 65.5162C71.4188 69.098 61.4908 71.3265 50.5 71.3265C39.5092 71.3265 29.5812 69.098 22.4176 65.5162C15.227 61.9209 10.9514 57.0377 10.9514 51.7779C10.9514 46.5182 15.227 41.6347 22.4176 38.0394C29.5812 34.4576 39.5092 32.2292 50.5 32.2292C61.4908 32.2292 71.4188 34.4576 78.5824 38.0394C85.773 41.6347 90.0486 46.5182 90.0486 51.7779Z" stroke="#DDF0A7" stroke-width="0.902778"/>
    <path d="M90.0486 54C90.0486 59.2598 85.773 64.1431 78.5824 67.7384C71.4188 71.3202 61.4908 73.5486 50.5 73.5486C39.5092 73.5486 29.5812 71.3202 22.4176 67.7384C15.227 64.1431 10.9514 59.2598 10.9514 54C10.9514 48.7402 15.227 43.8569 22.4176 40.2616C29.5812 36.6798 39.5092 34.4514 50.5 34.4514C61.4908 34.4514 71.4188 36.6798 78.5824 40.2616C85.773 43.8569 90.0486 48.7402 90.0486 54Z" stroke="#DDF0A7" stroke-width="0.902778"/>
    <path d="M90.0486 56.2222C90.0486 61.4819 85.773 66.3653 78.5824 69.9606C71.4188 73.5424 61.4908 75.7708 50.5 75.7708C39.5092 75.7708 29.5812 73.5424 22.4176 69.9606C15.227 66.3653 10.9514 61.4819 10.9514 56.2222C10.9514 50.9624 15.227 46.0791 22.4176 42.4838C29.5812 38.902 39.5092 36.6736 50.5 36.6736C61.4908 36.6736 71.4188 38.902 78.5824 42.4838C85.773 46.0791 90.0486 50.9624 90.0486 56.2222Z" stroke="#DDF0A7" stroke-width="0.902778"/>
    <path d="M90.0486 58.4445C90.0486 63.7042 85.773 68.5875 78.5824 72.1828C71.4188 75.7646 61.4908 77.9931 50.5 77.9931C39.5092 77.9931 29.5812 75.7646 22.4176 72.1828C15.227 68.5875 10.9514 63.7042 10.9514 58.4445C10.9514 53.1847 15.227 48.3014 22.4176 44.7061C29.5812 41.1243 39.5092 38.8958 50.5 38.8958C61.4908 38.8958 71.4188 41.1243 78.5824 44.7061C85.773 48.3014 90.0486 53.1847 90.0486 58.4445Z" stroke="#DDF0A7" stroke-width="0.902778"/>
    <path d="M90.0486 60.6665C90.0486 65.9263 85.773 70.8096 78.5824 74.4049C71.4188 77.9867 61.4908 80.2151 50.5 80.2151C39.5092 80.2151 29.5812 77.9867 22.4176 74.4049C15.227 70.8096 10.9514 65.9263 10.9514 60.6665C10.9514 55.4068 15.227 50.5234 22.4176 46.9281C29.5812 43.3463 39.5092 41.1179 50.5 41.1179C61.4908 41.1179 71.4188 43.3463 78.5824 46.9281C85.773 50.5234 90.0486 55.4068 90.0486 60.6665Z" stroke="#DDF0A7" stroke-width="0.902778"/>
    <path d="M90.0486 62.8889C90.0486 68.1487 85.773 73.032 78.5824 76.6273C71.4188 80.2091 61.4908 82.4375 50.5 82.4375C39.5092 82.4375 29.5812 80.2091 22.4176 76.6273C15.227 73.032 10.9514 68.1487 10.9514 62.8889C10.9514 57.6292 15.227 52.7458 22.4176 49.1505C29.5812 45.5687 39.5092 43.3403 50.5 43.3403C61.4908 43.3403 71.4188 45.5687 78.5824 49.1505C85.773 52.7458 90.0486 57.6292 90.0486 62.8889Z" stroke="#DDF0A7" stroke-width="0.902778"/>
    <path d="M90.0486 65.1111C90.0486 70.3708 85.773 75.2542 78.5824 78.8495C71.4188 82.4313 61.4908 84.6597 50.5 84.6597C39.5092 84.6597 29.5812 82.4313 22.4176 78.8495C15.227 75.2542 10.9514 70.3708 10.9514 65.1111C10.9514 59.8513 15.227 54.968 22.4176 51.3727C29.5812 47.7909 39.5092 45.5625 50.5 45.5625C61.4908 45.5625 71.4188 47.7909 78.5824 51.3727C85.773 54.968 90.0486 59.8513 90.0486 65.1111Z" stroke="#DDF0A7" stroke-width="0.902778"/>
    </symbol>

    <symbol  viewBox="0 0 100 100"  id="yellow-icon">
    <path fill-rule="evenodd" clip-rule="evenodd" d="M80.5 40C80.5 17.9086 62.5914 0 40.5 0C18.4086 0 0.5 17.9086 0.5 40C0.5 62.0914 18.4086 80 40.5 80C62.5914 80 80.5 62.0914 80.5 40ZM35.5 40C35.5 57.5541 36.9135 72.4672 38.8796 77.8526C38.5083 77.4676 38.1071 76.9369 37.6836 76.2206C36.575 74.3448 35.5332 71.5474 34.6416 67.9811C32.8632 60.8677 31.75 50.9743 31.75 40C31.75 29.0257 32.8632 19.1323 34.6416 12.0189C35.5332 8.4526 36.575 5.6552 37.6836 3.7794C38.1071 3.0631 38.5083 2.5324 38.8796 2.1474C36.9135 7.5328 35.5 22.4459 35.5 40ZM43.3164 76.2206C42.8929 76.9369 42.4917 77.4676 42.1204 77.8526C44.0865 72.4672 45.5 57.5541 45.5 40C45.5 22.4459 44.0865 7.5328 42.1204 2.1474C42.4917 2.5324 42.8929 3.0631 43.3164 3.7794C44.425 5.6552 45.4668 8.4526 46.3584 12.0189C48.1368 19.1323 49.25 29.0257 49.25 40C49.25 50.9743 48.1368 60.8677 46.3584 67.9811C45.4668 71.5474 44.425 74.3448 43.3164 76.2206ZM36.8483 77.2492C36.4318 76.9047 36.0142 76.4983 35.5966 76.0273C33.9396 74.1584 32.3903 71.3827 31.0638 67.8454C28.4143 60.78 26.75 50.9355 26.75 40C26.75 29.0645 28.4143 19.22 31.0638 12.1546C32.3903 8.6174 33.9396 5.8416 35.5966 3.9727C36.0142 3.5017 36.4318 3.0953 36.8483 2.7508C33.1315 8.5853 30.5 23.0634 30.5 40C30.5 56.9366 33.1315 71.4147 36.8483 77.2492ZM44.1517 77.2492C44.5682 76.9047 44.9858 76.4983 45.4034 76.0273C47.0604 74.1584 48.6097 71.3827 49.9362 67.8454C52.5857 60.78 54.25 50.9355 54.25 40C54.25 29.0645 52.5857 19.22 49.9362 12.1546C48.6097 8.6174 47.0604 5.8416 45.4034 3.9727C44.9858 3.5017 44.5682 3.0953 44.1517 2.7508C47.8685 8.5853 50.5 23.0634 50.5 40C50.5 56.9366 47.8685 71.4147 44.1517 77.2492ZM27.4759 67.7253C29.5062 71.7858 31.9035 74.8057 34.48 76.6483C29.193 70.4638 25.5 56.3819 25.5 40C25.5 23.6181 29.193 9.5362 34.48 3.3517C31.9035 5.1943 29.5062 8.2142 27.4759 12.2747C23.9604 19.3057 21.75 29.1063 21.75 40C21.75 50.8937 23.9604 60.6943 27.4759 67.7253ZM53.5241 67.7253C51.4938 71.7858 49.0965 74.8057 46.52 76.6483C51.807 70.4638 55.5 56.3819 55.5 40C55.5 23.6181 51.807 9.5362 46.52 3.3517C49.0965 5.1943 51.4938 8.2142 53.5241 12.2747C57.0396 19.3057 59.25 29.1063 59.25 40C59.25 50.8937 57.0396 60.6943 53.5241 67.7253ZM31.8398 76.0658C28.8794 74.1595 26.1745 71.2892 23.8823 67.6218C19.5009 60.6114 16.75 50.8489 16.75 40C16.75 29.1511 19.5009 19.3886 23.8823 12.3782C26.1745 8.7108 28.8794 5.8406 31.8398 3.9342C25.1307 10.39 20.5 24.1135 20.5 40C20.5 55.8865 25.1307 69.61 31.8398 76.0658ZM49.1602 76.0658C52.1206 74.1595 54.8255 71.2892 57.1177 67.6218C61.4991 60.6114 64.25 50.8489 64.25 40C64.25 29.1511 61.4991 19.3886 57.1177 12.3782C54.8255 8.7108 52.1206 5.8406 49.1602 3.9342C55.8693 10.39 60.5 24.1135 60.5 40C60.5 55.8865 55.8693 69.61 49.1602 76.0658ZM20.2868 67.5343C22.7894 70.8711 25.7253 73.5747 28.9576 75.4908C20.9602 68.8188 15.5 55.4296 15.5 40C15.5 24.5704 20.9602 11.1812 28.9576 4.5092C25.7253 6.4253 22.7894 9.1289 20.2868 12.4657C15.0352 19.4679 11.75 29.1986 11.75 40C11.75 50.8014 15.0352 60.5321 20.2868 67.5343ZM60.7132 67.5343C58.2106 70.8711 55.2747 73.5747 52.0424 75.4908C60.0398 68.8188 65.5 55.4296 65.5 40C65.5 24.5704 60.0398 11.1812 52.0424 4.5092C55.2747 6.4253 58.2106 9.1289 60.7132 12.4657C65.9648 19.4679 69.25 29.1986 69.25 40C69.25 50.8014 65.9648 60.5321 60.7132 67.5343ZM25.8269 74.8972C14.5846 68.6524 6.75 55.4494 6.75 40C6.75 24.5506 14.5846 11.3476 25.8269 5.1028C16.6799 11.9548 10.5 25.0151 10.5 40C10.5 54.9849 16.6799 68.0452 25.8269 74.8972ZM55.173 74.8972C66.4154 68.6524 74.25 55.4494 74.25 40C74.25 24.5506 66.4154 11.3476 55.1731 5.1028C64.3201 11.9548 70.5 25.0151 70.5 40C70.5 54.9849 64.3201 68.0452 55.173 74.8972ZM1.75 40C1.75 54.9353 10.1996 67.8972 22.5792 74.366C12.3502 67.384 5.5 54.6062 5.5 40C5.5 25.3938 12.3502 12.616 22.5792 5.634C10.1996 12.1028 1.75 25.0647 1.75 40ZM79.25 40C79.25 54.9353 70.8004 67.8972 58.4208 74.366C68.6498 67.384 75.5 54.6062 75.5 40C75.5 25.3938 68.6498 12.616 58.4208 5.634C70.8004 12.1028 79.25 25.0647 79.25 40ZM42.7952 68.1292C43.6918 60.9564 44.25 51.0107 44.25 40C44.25 28.9893 43.6918 19.0436 42.7952 11.8708C42.3458 8.2756 41.8171 5.425 41.2475 3.4977C41.2064 3.3587 41.1656 3.2261 41.125 3.0996V76.9004C41.1656 76.7739 41.2064 76.6413 41.2475 76.5023C41.8171 74.575 42.3458 71.7244 42.7952 68.1292ZM39.875 3.0996V76.9004C39.8344 76.7739 39.7936 76.6413 39.7525 76.5023C39.1829 74.575 38.6542 71.7244 38.2048 68.1292C37.3082 60.9564 36.75 51.0107 36.75 40C36.75 28.9893 37.3082 19.0436 38.2048 11.8708C38.6542 8.2756 39.1829 5.425 39.7525 3.4977C39.7936 3.3587 39.8344 3.2261 39.875 3.0996Z" fill="#DDF0A7"/>
    </symbol>
    
    <symbol  viewBox="0 0 100 100"  id="pyramid-icon">
    <path fill-rule="evenodd" clip-rule="evenodd" d="M45.5 0L0.5 65.4546H90.5L45.5 0ZM83.4275 64.7386H7.5725L45.5 56.9807L83.4275 64.7386ZM6.0467 64.32L45.5 56.25L84.9533 64.32L45.5 50.87L6.0467 64.32ZM45.5 44.7705L6.3173 63.4714L45.5 50.1136L84.6827 63.4714L45.5 44.7705ZM6.6596 62.5147L45.5 43.9773L84.3404 62.5147L45.5 38.6809L6.6596 62.5147ZM45.5 32.5994L7.0625 61.4276L45.5 37.8409L83.9375 61.4276L45.5 32.5994ZM7.5155 60.193L45.5 31.7045L83.4845 60.193L45.5 26.5248L7.5155 60.193ZM45.5 20.4558L8.0095 58.7984L45.5 25.5682L82.9905 58.7984L45.5 20.4558ZM8.5369 57.235L45.5 19.4318L82.463 57.2349L45.5 14.3914L8.5369 57.235ZM45.5 7.3209L7.9456 56.8245L45.5 13.2955L83.0544 56.8245L45.5 7.3209ZM9.7669 53.2391L45.5 6.1364L81.2331 53.239L45.5 1.2637L9.7669 53.2391Z" fill="#DDF0A7"/>
    </symbol>
</svg>
